<!-- Generator: Adobe Illustrator 15.0.0, SVG Export Plug-In . SVG Version: 6.00 Build 0)  -->
<svg version="1.2" baseProfile="tiny" id="Warstwa_1"
	 xmlns="http://www.w3.org/2000/svg" xmlns:xlink="http://www.w3.org/1999/xlink" x="0px" y="0px" width="245px" height="180px"
	 viewBox="0 0 245 180" xml:space="preserve">
<g>
	<path fill="none" stroke="#FFFFFF" stroke-width="2.8347" stroke-miterlimit="22.9256" d="M176.908,3.521
		c17.838,0,33.985,7.17,45.761,18.946c11.659,11.659,18.888,27.865,18.888,45.703c0,17.955-7.229,34.044-18.888,45.82
		c-11.775,11.658-27.923,18.887-45.761,18.887c-17.896,0-34.044-7.229-45.761-18.887c-11.718-11.775-18.946-27.865-18.946-45.82
		c0-17.838,7.229-34.044,18.946-45.703C142.864,10.691,159.012,3.521,176.908,3.521L176.908,3.521z"/>
	<path fill="#00448F" d="M176.908,3.521c17.838,0,33.985,7.17,45.761,18.946c11.659,11.659,18.888,27.865,18.888,45.703
		c0,17.955-7.229,34.044-18.888,45.82c-11.775,11.658-27.923,18.887-45.761,18.887c-17.896,0-34.044-7.229-45.761-18.887
		c-11.718-11.775-18.946-27.865-18.946-45.82c0-17.838,7.229-34.044,18.946-45.703C142.864,10.691,159.012,3.521,176.908,3.521
		L176.908,3.521z"/>
	<path fill-rule="evenodd" fill="#FFFFFF" d="M176.908,21.65c25.708,0,46.577,20.87,46.577,46.519
		c0,25.766-20.869,46.635-46.577,46.635s-46.577-20.869-46.577-46.635C130.331,42.52,151.2,21.65,176.908,21.65L176.908,21.65z"/>
	<path fill-rule="evenodd" fill="#FFFFFF" d="M233.396,43.919l-2.099-4.314l-10.144,4.664l2.099,4.547l1.866-0.933l-0.933-1.982
		l2.448-1.049l0.815,1.632l1.749-0.816l-0.699-1.749l2.099-0.933l0.816,1.749L233.396,43.919L233.396,43.919z M233.512,49.398
		c0,0.117,0.117,0.35,0.117,0.466c0,0.117,0,0.233,0,0.35l0,0c0,0.117,0,0.117-0.117,0.233l-0.116,0.117l0,0
		c-0.466,0.35-5.946,2.332-6.646,2.215l0,0c-0.116,0-0.233-0.117-0.35-0.233c-0.117-0.233-0.117-0.466-0.233-0.583L233.512,49.398
		L233.512,49.398z M234.212,46.25l-10.609,3.614l1.165,3.498c0.233,0.466,0.351,1.049,0.7,1.399c0.116,0.35,0.35,0.583,0.583,0.7
		l0,0c0.232,0.116,0.583,0.233,0.933,0.233l0,0c0.466,0,1.398-0.35,1.865-0.583l0,0l3.848-1.282l0,0
		c0.466-0.117,0.933-0.35,1.282-0.466l0,0c0.35-0.117,0.583-0.233,0.699-0.35c0.351-0.116,0.583-0.466,0.816-0.699l0,0
		c0.233-0.466,0.233-0.816,0.233-1.283C235.61,49.749,234.678,47.533,234.212,46.25L234.212,46.25z M230.48,60.708l7.462,0.7
		l-0.466-2.448l-5.014,0.117l4.663-1.749l-0.466-2.448l-6.646,3.381l0,0l0,0l-3.964,0.7l0.466,2.565L230.48,60.708L230.48,60.708
		L230.48,60.708L230.48,60.708z M233.396,68.169l0.116,2.798h1.05l0,0c0.699,0,1.632-0.117,2.332-0.35l0,0
		c0.815-0.35,1.282-1.282,1.516-2.099c0-0.35,0-0.699,0-1.166l0,0c0-0.583-0.117-1.166-0.35-1.632
		c-0.233-0.466-0.467-0.816-0.934-1.166c-0.582-0.466-1.165-0.466-1.865-0.466c-0.35,0-0.699,0-1.166,0l0,0
		c-1.516,0.117-3.264,0-4.779,0.233c-0.351,0.117-0.7,0.233-1.05,0.233l0,0c-0.466,0.233-0.933,0.7-1.166,1.166l0,0
		c-0.466,0.933-0.466,2.332-0.233,3.264l0,0c0.233,0.816,0.934,1.632,1.749,1.982l0,0c0.233,0,0.583,0.116,0.933,0.116
		c0.7,0,1.283,0,1.866,0l-0.117-2.798h-1.282l0,0c-0.35,0.117-0.583,0.117-0.816,0c-0.233,0-0.35,0-0.466,0l0,0
		c-0.233-0.117-0.233-0.35-0.351-0.583c0-0.233,0.117-0.466,0.351-0.466l0,0c0.116-0.117,0.232-0.117,0.466-0.117
		c1.865-0.233,4.896-0.35,6.763-0.233c0.116,0,0.35,0,0.35,0l0,0c0.35,0.117,0.35,0.35,0.35,0.583
		c0.116,0.466-0.233,0.583-0.583,0.583c-0.233,0.117-0.467,0.117-0.699,0.117l0,0H233.396L233.396,68.169z M235.261,78.313
		l2.099,0.233l0.583-4.897l-1.981-0.35l-0.351,2.099l-7.229-3.265l-1.516-0.233l-0.699,5.363l2.099,0.233l0.233-2.332
		L235.261,78.313L235.261,78.313z M224.186,84.492l10.959,2.915l0.583-2.215l-5.014-1.399l5.479-0.35l0.583-2.215l-10.843-2.915
		l-0.583,2.215l5.014,1.399l-5.479,0.233L224.186,84.492L224.186,84.492z M225.817,90.671l0.583-1.166l4.313,2.681L225.817,90.671
		L225.817,90.671z M221.037,91.837l10.959,3.031l1.749-3.73l-9.677-5.946l-1.166,2.682l1.749,0.933l-0.466,1.166l-1.982-0.7
		L221.037,91.837L221.037,91.837z M220.454,42.986l9.094-6.646l-2.099-3.031l-4.43,2.332l1.748-1.982l0,0
		c0.351-0.35,0.583-0.583,0.934-0.933c0.232-0.233,0.466-0.466,0.699-0.7l-2.099-3.031l-9.094,6.646l1.398,1.982l6.296-4.547
		l-5.596,5.596l1.049,1.283l6.879-3.614l-6.18,4.664L220.454,42.986L220.454,42.986z M184.253,125.647v-0.116l0,0l-0.116-0.816
		c-0.059,0-0.059,0-0.116,0c-0.059,0-0.117,0-0.175,0.117l0,0c-0.059,0-0.117,0-0.176,0c-0.058,0.116-0.116,0.116-0.116,0.116
		c-0.059,0-0.116,0.116-0.175,0.116c0,0.117-0.059,0.117-0.059,0.233l0,0c-0.058,0-0.058,0.117-0.058,0.117c0,0.116,0,0.116,0,0.232
		c0,0.117,0,0.233,0.058,0.233c0,0.116,0.059,0.116,0.059,0.233c0.059,0,0.059,0,0.116,0.116l0,0h0.059l0,0c0.059,0,0.116,0,0.116,0
		c0.059,0,0.059,0,0.117,0l0,0h0.059l0,0c0.058,0,0.116,0,0.116,0l0,0c0.059,0,0.059-0.116,0.116-0.116h0.059
		c0-0.117,0.059-0.117,0.059-0.117c0-0.116,0-0.116,0.058-0.232l0,0l0,0C184.253,125.765,184.253,125.765,184.253,125.647
		L184.253,125.647L184.253,125.647L184.253,125.647z M186.119,126.813c0,0.117,0.058,0.117,0.058,0.233l0.059,0.116h-0.116
		l-1.341,0.233h-0.117v-0.116l-0.116-0.35c0,0.116-0.059,0.116-0.116,0.232c-0.059,0.117-0.176,0.117-0.292,0.233l0,0
		c-0.059,0-0.175,0.117-0.291,0.117c-0.117,0.116-0.292,0.116-0.408,0.116l0,0c-0.117,0-0.292,0-0.408,0
		c-0.175,0-0.292-0.116-0.408-0.116l0,0c-0.116-0.117-0.233-0.117-0.35-0.233c-0.117-0.117-0.233-0.233-0.292-0.35
		c-0.058-0.117-0.175-0.233-0.232-0.467l0,0c0-0.116-0.059-0.233-0.059-0.467l0,0c-0.059-0.116-0.059-0.232-0.059-0.35
		c0-0.232,0.059-0.35,0.059-0.466l0,0c0.059-0.117,0.116-0.233,0.175-0.35c0.059-0.117,0.116-0.233,0.175-0.351
		c0.116,0,0.175-0.116,0.292-0.232c0.058-0.117,0.175-0.117,0.291-0.233l0,0c0.059,0,0.175-0.116,0.291-0.116l0,0
		c0.117-0.117,0.233-0.117,0.351-0.233c0.116,0,0.291,0,0.407-0.117c0.059,0,0.176,0,0.292,0l0,0
		c-0.059-0.116-0.059-0.116-0.059-0.232l-0.058-0.117c-0.059,0-0.117-0.116-0.117-0.116c-0.059,0-0.116-0.117-0.175-0.117l0,0
		c-0.059,0-0.116,0-0.175,0s-0.116,0-0.175,0l0,0c-0.116,0-0.233,0-0.35,0c-0.059,0.117-0.175,0.117-0.233,0.117l0,0
		c-0.116,0.116-0.175,0.116-0.233,0.116l0,0c-0.116,0.117-0.175,0.117-0.233,0.233h-0.116l-0.059-0.116l-0.407-0.934v-0.116h0.058
		c0,0,0.117-0.116,0.175-0.116c0.059,0,0.117-0.117,0.233-0.117c0.059,0,0.175-0.116,0.233-0.116
		c0.116-0.116,0.233-0.116,0.35-0.116l0,0c0.116-0.117,0.233-0.117,0.35-0.117c0.117,0,0.233,0,0.35-0.116l0,0
		c0.175,0,0.35,0,0.525,0c0.116,0,0.291,0,0.407,0.116c0.117,0,0.233,0,0.351,0.117c0.116,0,0.175,0.116,0.291,0.116l0,0
		c0.116,0.116,0.175,0.233,0.233,0.233c0.059,0.116,0.116,0.232,0.175,0.35c0.059,0.116,0.116,0.116,0.175,0.233
		c0.059,0.116,0.059,0.232,0.116,0.35l0,0c0,0.116,0.059,0.233,0.059,0.35s0.059,0.233,0.059,0.35l0.233,2.099
		c0,0.116,0.058,0.233,0.058,0.233c0,0.116,0.059,0.233,0.059,0.35l0,0C186.061,126.58,186.119,126.697,186.119,126.813
		L186.119,126.813z M181.164,127.863l-3.614,0.116h-0.059v-0.116l-0.059-0.933l0,0l0,0l1.283-2.565l0,0l0.116-0.233l0,0l0.059-0.116
		l0,0l0.175-0.35l0,0h0.058l0,0c0,0,0-0.117,0.059-0.117l0,0l0,0h-1.574h-0.116l0,0l-0.059-1.282v-0.116h0.117l3.381-0.117h0.059
		v0.117l0.058,1.049l0,0l0,0l-1.282,2.448l0,0c-0.059,0.117-0.059,0.233-0.116,0.35l0,0l-0.117,0.233l0,0
		c-0.058,0-0.116,0.117-0.175,0.117l0,0v0.116h1.749h0.116l0,0l0.059,1.282v0.117H181.164L181.164,127.863z M173.586,127.746
		L173.586,127.746c-0.059-0.116-0.117-0.116-0.117-0.116l-0.059-0.116l0,0l0.292-1.166l0.059-0.117l0.116,0.117
		c0.059,0,0.059,0,0.116,0.116c0.059,0,0.117,0,0.117,0l0,0c0.058,0,0.116,0.116,0.175,0.116s0.116,0,0.175,0s0.116,0,0.175,0
		c0.059,0.117,0.116,0.117,0.175,0.117c0.116,0,0.175,0,0.233-0.117l0,0c0.059,0,0.116,0,0.175,0s0.059-0.116,0.059-0.116l0,0
		c0.058-0.116,0.058-0.116,0.058-0.233l0,0c0,0,0,0,0-0.116c0,0,0,0-0.058,0l0,0c0-0.117,0-0.117-0.059-0.117l0,0
		c0-0.116-0.059-0.116-0.116-0.116l0,0c0-0.116-0.059-0.116-0.117-0.116c-0.059-0.117-0.175-0.117-0.233-0.233l0,0
		c-0.116,0-0.291-0.116-0.407-0.233l0,0c-0.117-0.116-0.176-0.233-0.292-0.233l0,0c-0.059-0.116-0.175-0.232-0.233-0.35
		c-0.058-0.116-0.058-0.233-0.116-0.35l0,0c0,0-0.059-0.116-0.059-0.233c0-0.116,0-0.232,0-0.232c0-0.233,0-0.351,0.059-0.583
		c0.059-0.117,0.116-0.233,0.233-0.467l0,0c0.058-0.116,0.175-0.233,0.291-0.35c0.117-0.117,0.233-0.117,0.408-0.233l0,0
		c0.116-0.116,0.291-0.116,0.467-0.116l0,0c0.175-0.117,0.35-0.117,0.524-0.117l0,0c0.116,0,0.233,0,0.35,0
		c0.116,0.117,0.233,0.117,0.35,0.117c0.059,0,0.175,0,0.233,0.116c0.116,0,0.175,0,0.233,0.116h0.116l-0.059,0.117l-0.291,1.049
		l-0.059,0.117h-0.116c0-0.117-0.059-0.117-0.117-0.117l0,0c-0.058,0-0.116-0.116-0.175-0.116c-0.058,0-0.116,0-0.175,0l0,0
		c-0.116,0-0.175,0-0.233,0c-0.058,0-0.116,0-0.116,0c-0.059,0-0.116,0-0.116,0l0,0c-0.059,0-0.117,0-0.117,0l0,0
		c0,0.116-0.058,0.116-0.058,0.116s0,0.117-0.059,0.117c0,0,0,0,0,0.116l0,0l0,0c0,0.117,0,0.117,0.059,0.117l0,0
		c0,0,0,0.116,0.058,0.116c0,0,0.059,0,0.059,0.116l0,0c0.059,0,0.116,0,0.175,0.117l0,0c0.059,0,0.175,0.116,0.233,0.116l0,0
		c0.116,0.116,0.233,0.233,0.35,0.233l0,0c0.116,0.116,0.233,0.233,0.292,0.35c0.116,0.116,0.175,0.116,0.232,0.233l0,0
		c0.059,0.116,0.117,0.233,0.175,0.35l0,0c0,0.116,0.059,0.233,0.059,0.35s0,0.233,0,0.35c0,0.117,0,0.35-0.059,0.467
		c-0.058,0.233-0.116,0.35-0.232,0.466c-0.117,0.233-0.233,0.351-0.351,0.351c-0.116,0.116-0.232,0.232-0.407,0.35
		c-0.176,0-0.351,0.116-0.525,0.116s-0.35,0-0.583,0c-0.058,0-0.116,0-0.232,0c-0.059,0-0.175,0-0.233,0
		c-0.059-0.116-0.175-0.116-0.233-0.116l0,0c-0.116,0-0.175,0-0.233-0.117C173.761,127.746,173.644,127.746,173.586,127.746
		L173.586,127.746z M171.662,121.917l1.457,0.116h0.116v0.117l-0.583,3.847c0,0.233,0,0.351-0.058,0.467c0,0.116,0,0.35,0,0.467l0,0
		c-0.059,0.116-0.059,0.232-0.059,0.35l-0.059,0.466v0.117h-0.116l-1.282-0.233h-0.059v-0.116v-0.351h-0.059l0,0
		c-0.058,0.117-0.116,0.117-0.175,0.117l0,0c-0.116,0.116-0.175,0.116-0.233,0.116l0,0c-0.116,0.117-0.175,0.117-0.291,0.117l0,0
		c-0.059,0-0.175,0-0.291,0c-0.059,0-0.176,0-0.292,0l0,0c-0.175,0-0.35,0-0.466-0.117c-0.176-0.116-0.292-0.116-0.408-0.233
		c-0.117-0.116-0.175-0.232-0.233-0.466c-0.059-0.117-0.117-0.233-0.175-0.467c0-0.116,0-0.35,0-0.583c0-0.232,0-0.466,0.058-0.699
		l0.467-3.381v-0.117h0.116l1.516,0.233h0.059v0.117l-0.466,3.264l0,0c0,0.117,0,0.233,0,0.233c0,0.117,0,0.233,0,0.35l0,0
		c0,0.117,0,0.117,0,0.233l0,0c0.058,0,0.058,0.116,0.058,0.116c0.059,0.117,0.059,0.117,0.117,0.117c0.058,0,0.116,0,0.116,0
		c0.059,0.116,0.116,0.116,0.116,0c0.059,0,0.059,0,0.059,0c0.059,0,0.059,0,0.117,0c0,0,0.058,0,0.058-0.117h0.059
		c0,0,0,0,0.059-0.116l0,0l0,0c0,0,0,0,0.058,0l0,0c0-0.116,0-0.116,0-0.116l0,0c0-0.117,0.059-0.117,0.059-0.117
		c0-0.116,0-0.116,0-0.116l0.524-3.614v-0.116L171.662,121.917L171.662,121.917z M165.366,123.083c0,0,0,0-0.059,0l1.107,0.35
		c0-0.116,0.059-0.233,0.059-0.233c0-0.116,0-0.233,0-0.35l0,0c0-0.116,0-0.116,0-0.233c-0.059-0.116-0.059-0.116-0.059-0.233
		c-0.058,0-0.058-0.116-0.116-0.116l0,0c-0.059,0-0.117,0-0.175,0l0,0c0,0-0.059,0-0.117,0c-0.058,0-0.058,0-0.116,0l0,0
		c-0.059,0-0.116,0-0.116,0.116c-0.059,0-0.117,0-0.117,0.117c-0.058,0-0.116,0.116-0.116,0.116
		c-0.059,0.117-0.059,0.117-0.117,0.233l0,0C165.424,122.85,165.366,122.966,165.366,123.083L165.366,123.083z M167.697,124.715
		c0,0.117-0.058,0.117-0.058,0.117l-0.059,0.116h-0.059l-2.506-0.583c0,0.116,0,0.233,0,0.233c0,0.116,0,0.233,0.058,0.35l0,0
		c0,0,0.059,0.116,0.117,0.233c0.058,0,0.116,0.116,0.175,0.116l0,0c0.058,0.117,0.116,0.117,0.233,0.117
		c0.058,0.116,0.175,0.116,0.291,0.116l0,0c0.059,0,0.175,0.116,0.291,0.116c0.059,0,0.176,0,0.233,0c0.117,0,0.175,0,0.292,0l0,0
		c0.058,0,0.116,0,0.232,0h0.117v0.117l-0.059,1.049v0.117h-0.116c-0.059,0-0.117,0-0.233,0c-0.059,0-0.116,0-0.233,0l0,0
		c-0.058,0-0.175,0-0.291,0c-0.059,0-0.175,0-0.233,0c-0.116,0-0.233,0-0.291,0c-0.117-0.117-0.233-0.117-0.292-0.117
		c-0.291,0-0.524-0.116-0.699-0.233c-0.233-0.116-0.408-0.232-0.525-0.35c-0.175-0.233-0.291-0.35-0.407-0.583
		c-0.117-0.116-0.175-0.35-0.175-0.583c-0.059-0.232-0.117-0.466-0.059-0.815c0-0.233,0.059-0.467,0.116-0.816l0,0
		c0.059-0.233,0.117-0.467,0.175-0.583c0.059-0.233,0.175-0.467,0.292-0.583c0.058-0.233,0.175-0.35,0.291-0.466
		c0.117-0.117,0.233-0.233,0.408-0.351c0.117-0.116,0.233-0.232,0.408-0.35c0.116,0,0.291-0.116,0.408-0.116l0,0
		c0.175,0,0.35-0.117,0.524-0.117c0.116,0,0.292,0.117,0.467,0.117l0,0c0.175,0,0.407,0.116,0.524,0.233
		c0.175,0.116,0.35,0.232,0.466,0.35l0,0c0.117,0.116,0.233,0.233,0.292,0.466c0.059,0.117,0.116,0.35,0.175,0.583
		c0,0.233,0,0.467,0,0.7c0,0.232-0.059,0.466-0.116,0.815l0,0c-0.059,0.117-0.059,0.117-0.059,0.233l0,0
		c-0.059,0.116-0.059,0.116-0.059,0.233l0,0L167.697,124.715L167.697,124.715L167.697,124.715z M160.877,123.549L160.877,123.549
		c0,0,0,0,0-0.116l0,0l0.408-1.399l0,0l0,0l0,0l0.059-0.116l0,0c0,0,0,0,0-0.116l0,0c0-0.117,0-0.117,0-0.233v-0.117l0,0v-0.116
		c-0.059,0-0.059-0.116-0.059-0.116l0,0c-0.059,0-0.059,0-0.116-0.117l0,0h-0.059c-0.059,0-0.116,0-0.175,0l0,0c0,0-0.059,0-0.116,0
		l0,0c-0.059,0-0.117,0.117-0.117,0.117l0,0c-0.058,0-0.116,0.116-0.175,0.116c-0.059,0.116-0.059,0.233-0.116,0.233
		c-0.059,0.116-0.117,0.233-0.117,0.233l0,0c-0.058,0.116-0.058,0.232-0.116,0.35l0,0c-0.059,0.116-0.059,0.232-0.116,0.232l0,0
		c-0.059,0.351-0.117,0.583-0.117,0.7c-0.058,0.233-0.058,0.35,0,0.583c0,0.116,0.059,0.233,0.117,0.233l0,0
		c0.058,0.116,0.116,0.116,0.175,0.116l0,0l0.058,0.116c0.059,0,0.059,0,0.117-0.116l0,0c0,0,0,0,0.058,0c0,0,0.059,0,0.117,0
		l0.059-0.116c0.058,0,0.058-0.117,0.116-0.117l0,0l0,0c0,0,0,0,0-0.116l0,0c0.059,0,0.059,0,0.059,0l0,0L160.877,123.549
		L160.877,123.549z M161.81,120.168l0.7-2.448h0.058h0.059l1.457,0.35l0.117,0.117h-0.059l-1.69,6.063l0,0
		c-0.059,0.116-0.059,0.232-0.116,0.232c0,0.117,0,0.233-0.059,0.351l0,0l-0.059,0.232l0,0l-0.058,0.233l0,0l-0.117,0.583
		l-0.058,0.116l-0.117-0.116l-1.224-0.35h-0.059v-0.116l0.059-0.351c-0.059,0.117-0.117,0.117-0.233,0.117
		c-0.059,0.116-0.117,0.116-0.233,0.116c-0.059,0-0.175,0-0.233,0l0,0c-0.116,0.117-0.175,0.117-0.291,0.117
		c-0.059,0-0.175-0.117-0.233-0.117l0,0c-0.175,0-0.291-0.116-0.408-0.116c-0.116-0.117-0.233-0.233-0.35-0.35l0,0
		c-0.059-0.117-0.175-0.233-0.233-0.351c-0.058-0.116-0.116-0.232-0.116-0.466c-0.059-0.116-0.059-0.233-0.059-0.467l0,0
		c0-0.116,0-0.35,0-0.466c0-0.233,0.059-0.35,0.059-0.583c0.059-0.233,0.116-0.35,0.116-0.583l0,0
		c0.117-0.233,0.175-0.467,0.233-0.583c0.116-0.233,0.175-0.467,0.291-0.583c0.117-0.233,0.233-0.35,0.292-0.466
		c0.116-0.117,0.233-0.233,0.35-0.351l0,0c0.116-0.116,0.233-0.116,0.408-0.232c0.116-0.117,0.233-0.117,0.35-0.117l0,0
		c0.116,0,0.233-0.116,0.35-0.116c0.175,0,0.292,0.116,0.408,0.116l0,0c0.059,0,0.175,0,0.233,0.117l0,0
		c0.059,0,0.116,0,0.175,0.116l0,0c0.059,0,0.116,0,0.175,0.116c0.059,0,0.059,0.117,0.116,0.117l0,0
		C161.81,120.168,161.81,120.168,161.81,120.168L161.81,120.168z M155.747,122.033c0.059,0,0.059,0,0.059,0l0,0l0.291-0.815
		c0,0,0,0-0.058,0l0,0c-0.059,0-0.117-0.117-0.175-0.117l0,0c-0.059,0-0.117,0-0.175,0c-0.117,0-0.175,0-0.233,0l0,0
		c-0.059,0-0.117,0-0.175,0.117c-0.059,0-0.059,0-0.117,0l0,0c-0.058,0.116-0.116,0.116-0.175,0.232l0,0
		c0,0-0.058,0.117-0.116,0.117c0,0.116-0.059,0.233-0.059,0.233c0,0.116,0,0.116,0,0.232l0,0c0,0,0,0.117,0.059,0.117l0,0v0.116l0,0
		c0.059,0,0.059,0.116,0.116,0.116l0,0h0.059l0,0c0.059,0,0.059,0,0.116,0c0,0,0.059,0,0.117,0l0,0h0.058l0,0
		c0.059,0,0.117,0,0.117,0l0,0c0.059,0,0.116,0,0.116-0.116c0.059,0,0.059,0,0.117,0l0,0c0-0.116,0-0.116,0-0.116l0,0
		c0.058,0,0.058,0,0.058,0l0,0V122.033L155.747,122.033L155.747,122.033z M156.854,124.016c-0.058,0.116-0.058,0.116-0.058,0.233
		l-0.059,0.116h-0.116l-1.225-0.466l-0.116-0.117l0.058-0.116l0.059-0.233c-0.059,0-0.116,0-0.175,0
		c-0.116,0.116-0.233,0.116-0.35,0.116l0,0c-0.116,0-0.292,0-0.408,0s-0.233-0.116-0.35-0.116l0,0
		c-0.117-0.116-0.292-0.116-0.35-0.233l0,0c-0.117-0.116-0.233-0.233-0.292-0.35l0,0c-0.116-0.116-0.175-0.233-0.233-0.35
		c-0.058-0.117-0.058-0.233-0.058-0.35c0-0.233,0-0.35,0-0.467c0.058-0.233,0.058-0.35,0.116-0.583l0,0
		c0.059-0.116,0.175-0.233,0.233-0.35s0.175-0.233,0.233-0.35c0.116,0,0.175-0.116,0.291-0.233c0.117,0,0.233-0.116,0.35-0.116l0,0
		c0.117-0.117,0.233-0.117,0.351-0.117c0.116,0,0.232,0,0.35-0.116c0.116,0,0.232,0,0.408,0c0.116,0.116,0.232,0.116,0.35,0.116
		c0.116,0,0.232,0,0.408,0.117c0.058,0,0.175,0,0.232,0l0,0l0,0c0.059,0,0.059-0.117,0.059-0.117c0-0.116,0.059-0.116,0-0.232
		v-0.117c-0.059-0.116-0.059-0.116-0.116-0.116c0-0.117-0.059-0.117-0.117-0.117l0,0c-0.058-0.116-0.116-0.116-0.175-0.116l0,0
		c-0.116-0.116-0.233-0.116-0.291-0.116l0,0c-0.117,0-0.233,0-0.292,0c-0.116-0.117-0.175-0.117-0.291-0.117
		c-0.059,0-0.175,0.117-0.292,0.117h-0.116v-0.117l0.116-1.049l0.059-0.117h0.059c0.058,0,0.116,0,0.232,0c0.059,0,0.117,0,0.233,0
		c0.117,0,0.175,0,0.292,0c0.116,0,0.232,0,0.35,0c0.116,0.117,0.233,0.117,0.35,0.117c0.116,0.116,0.233,0.116,0.35,0.116l0,0
		c0.175,0.117,0.35,0.233,0.467,0.233c0.116,0.116,0.233,0.233,0.35,0.233l0,0c0.059,0.116,0.175,0.232,0.233,0.35
		c0.058,0.116,0.116,0.116,0.175,0.233l0,0c0.058,0.116,0.058,0.232,0.116,0.35c0,0.116,0,0.233,0,0.35l0,0c0,0.116,0,0.233,0,0.35
		c-0.059,0.117-0.059,0.233-0.059,0.35l0,0c-0.058,0.117-0.058,0.233-0.116,0.35c-0.059,0-0.059,0.117-0.116,0.233l0,0l0,0
		l-0.816,1.982c0,0.116-0.059,0.233-0.116,0.35c0,0-0.059,0.116-0.059,0.233l0,0C156.913,123.782,156.854,123.899,156.854,124.016
		L156.854,124.016z M151.259,122.15l-1.341-0.7l-0.059-0.116l0,0l2.856-5.597l-1.107-0.583h-0.116l0.058-0.116l0.642-1.282l0,0
		h0.116l3.789,1.981h0.059v0.117l-0.641,1.166l-0.059,0.116h-0.117l-1.107-0.583l-2.856,5.479v0.117H151.259L151.259,122.15z
		 M146.304,119.469c-0.116-0.117-0.175-0.117-0.233-0.117l0,0c-0.116-0.116-0.175-0.116-0.233-0.232
		c-0.058,0-0.116-0.117-0.116-0.233l0,0c-0.059,0-0.059-0.117-0.059-0.233c-0.058,0-0.058-0.116-0.058-0.233l0,0
		c0.058-0.116,0.058-0.232,0.116-0.232c0-0.117,0.059-0.233,0.116-0.351l0,0c0.059-0.116,0.117-0.116,0.175-0.232
		c0.059,0,0.176-0.117,0.233-0.117l0,0c0.117-0.116,0.175-0.116,0.233-0.116l0,0c0.116,0,0.175,0,0.291,0l0,0
		c0.059,0,0.176,0,0.233,0l0,0c0.117,0,0.175,0,0.233,0.116l0,0c0.116,0,0.175,0.117,0.233,0.117
		c0.059,0.116,0.116,0.232,0.116,0.232c0.059,0.117,0.059,0.233,0.059,0.233c0.059,0.117,0.059,0.233,0.059,0.35l0,0
		c-0.059,0-0.059,0.117-0.117,0.233c0,0.116-0.058,0.233-0.116,0.233l0,0c-0.059,0.116-0.117,0.233-0.175,0.233
		c-0.059,0.116-0.175,0.232-0.233,0.232l0,0c-0.059,0-0.175,0.117-0.233,0.117c-0.116,0-0.175,0-0.291,0
		C146.479,119.469,146.362,119.469,146.304,119.469L146.304,119.469z M139.892,114.922l-1.108-0.933l-0.116-0.117h0.059l2.507-3.031
		l0,0c0.058-0.116,0.175-0.233,0.232-0.35c0.117-0.116,0.175-0.233,0.292-0.35c0.116-0.233,0.291-0.467,0.408-0.583l0.058-0.116
		l0.059-0.117l0.116,0.117l0.991,0.815l0.059,0.117h-0.059l-0.175,0.35l0,0c0.117,0,0.175,0,0.292,0l0,0c0.058,0,0.175,0,0.291,0
		c0.059,0,0.175,0,0.233,0.116l0,0c0.116,0,0.175,0,0.291,0.117c0.059,0,0.175,0.116,0.233,0.116l0,0
		c0.117,0.116,0.233,0.233,0.35,0.35l0,0c0.059,0.116,0.117,0.233,0.175,0.35c0.059,0.117,0.059,0.233,0.059,0.35
		c0,0.117,0,0.233,0,0.233l0,0l0,0c0.116,0,0.175,0,0.233,0s0.116,0,0.233,0l0,0c0.058,0,0.116,0,0.175,0l0,0
		c0.116,0,0.175,0,0.232,0l0,0c0.059,0.117,0.117,0.117,0.176,0.117l0,0c0.058,0,0.175,0.116,0.232,0.116l0,0
		c0.059,0,0.117,0.116,0.175,0.116l0,0c0.117,0.117,0.233,0.233,0.292,0.351h0.059c0.058,0.116,0.116,0.35,0.175,0.466
		c0,0.116,0,0.233,0,0.467l0,0c0,0.116-0.059,0.232-0.117,0.466l0,0c-0.058,0.117-0.175,0.35-0.233,0.467
		c-0.116,0.116-0.232,0.35-0.407,0.583l0,0l-2.216,2.682l-0.058,0.116l-0.117-0.116l-1.107-0.934h-0.116l0.058-0.116l2.099-2.564
		l0,0c0.059-0.117,0.117-0.117,0.175-0.233l0,0c0.059-0.117,0.117-0.117,0.175-0.233l0,0c0-0.116,0.059-0.116,0.059-0.233
		c0.059,0,0.059-0.116,0.059-0.116c0-0.117,0-0.117-0.059-0.117l0,0c0-0.116-0.059-0.116-0.059-0.116
		c-0.058-0.116-0.116-0.116-0.175-0.116l0,0c0,0-0.058,0-0.116,0l0,0c-0.059,0-0.116,0-0.175,0
		c-0.059,0.116-0.116,0.116-0.175,0.116s-0.059,0-0.059,0.116l0,0c-0.059,0-0.059,0-0.059,0l0,0c-0.058,0-0.058,0-0.116,0.117
		c0,0,0,0-0.059,0l-2.215,2.798l-0.059,0.117l-0.116-0.117l-1.107-0.933h-0.117l0.059-0.116l2.215-2.799l0,0
		c0.059,0,0.059,0,0.117-0.116c0,0,0.059,0,0.059-0.116l0,0c0.058,0,0.058,0,0.116-0.117l0,0c0,0,0-0.116,0.059-0.116l0,0v-0.117
		c0,0,0,0,0-0.116c0,0,0,0-0.059-0.116h-0.059l0,0c-0.058-0.117-0.058-0.117-0.116-0.117l0,0c-0.059,0-0.117,0-0.175,0l0,0
		c-0.059,0-0.117,0-0.175,0c-0.059,0-0.117,0.117-0.175,0.117l0,0h-0.059c-0.059,0.116-0.059,0.116-0.059,0.116l0,0
		c-0.059,0-0.059,0-0.116,0.116l0,0c0,0,0,0-0.059,0l-2.215,2.799l-0.059,0.116L139.892,114.922L139.892,114.922z M142.281,106.41
		c0.059,0,0.116,0.117,0.175,0.117l0,0c0.059,0,0.117,0.116,0.175,0.116c0.059,0.117,0.059,0.233,0.117,0.233l0,0
		c0,0.116,0,0.116,0,0.233c0.058,0.116,0,0.116,0,0.233l0,0c0,0.116-0.059,0.116-0.059,0.232l0,0
		c-0.059,0.117-0.116,0.117-0.175,0.233l0,0c-0.059,0-0.117,0.116-0.175,0.116l0,0c-0.059,0.117-0.175,0.117-0.233,0.117l0,0
		c-0.059,0-0.116,0.116-0.233,0.116l0,0c-0.058,0-0.116,0-0.233-0.116c-0.058,0-0.116,0-0.175,0
		c-0.116-0.117-0.175-0.117-0.232-0.117l0,0c-0.059-0.116-0.117-0.116-0.117-0.232c-0.058-0.117-0.116-0.117-0.116-0.233l0,0
		c0,0-0.059-0.116-0.059-0.233c0,0,0-0.116,0.059-0.233l0,0l0.059-0.116c0.058-0.116,0.116-0.233,0.175-0.233l0,0
		c0.058-0.116,0.116-0.116,0.175-0.233c0.058,0,0.175,0,0.232-0.116c0.059,0,0.117,0,0.233,0c0.059,0,0.117,0,0.233,0l0,0
		C142.165,106.294,142.223,106.41,142.281,106.41L142.281,106.41L142.281,106.41z M190.433,126.464l-1.457,0.35h-0.117l-0.058-0.116
		l-1.691-7.462l-0.058-0.116h0.116l1.457-0.351h0.117l0,0l0.699,2.915l0,0l0.059-0.583l0,0l0.466-2.564v-0.117h0.059l1.633-0.35
		h0.116v0.117l-0.933,3.614l2.682,3.847l0.058,0.117h-0.175l-1.573,0.35h-0.059h-0.059l-1.69-2.682l-0.116,0.467l0.583,2.448v0.116
		H190.433L190.433,126.464z M194.863,120.518c-0.059-0.116-0.059-0.116-0.117,0c-0.058,0-0.116,0-0.116,0
		c-0.059,0.117-0.059,0.117-0.116,0.117c0,0.116,0,0.116-0.059,0.232c0,0.117,0,0.117,0,0.233c0,0.117,0.059,0.117,0.059,0.233l0,0
		c0,0.116,0,0.233,0.058,0.35c0,0,0,0.117,0.059,0.233c0,0.116,0.059,0.233,0.059,0.233l0,0c0.058,0.116,0.116,0.232,0.116,0.35l0,0
		c0.059,0.116,0.116,0.233,0.116,0.35l0,0c0.059,0.116,0.117,0.116,0.175,0.233c0,0.116,0.059,0.116,0.117,0.233
		c0.059,0,0.116,0.116,0.116,0.116c0.059,0.116,0.117,0.116,0.175,0.116l0,0c0.059,0,0.059,0.117,0.117,0.117l0,0
		c0.058,0,0.116,0,0.175-0.117h0.058l0,0c0.059,0,0.059-0.116,0.059-0.116l0,0c0.059-0.116,0.059-0.116,0.059-0.233
		c0,0,0-0.116,0-0.233c0,0,0-0.116,0-0.232c0-0.117-0.059-0.233-0.059-0.233c-0.059-0.117-0.059-0.233-0.059-0.35l0,0
		c-0.058-0.117-0.058-0.233-0.116-0.233l0,0c0-0.116-0.059-0.233-0.116-0.35c0-0.117-0.059-0.117-0.117-0.233
		c0-0.116-0.058-0.233-0.116-0.233c0-0.116-0.059-0.233-0.116-0.233l0,0c-0.059-0.116-0.117-0.116-0.117-0.232l0,0
		c-0.059,0-0.116-0.117-0.175-0.117l0,0C194.921,120.518,194.921,120.518,194.863,120.518L194.863,120.518z M193.931,119.352
		c0.116,0,0.232-0.116,0.407-0.116l0,0c0.233-0.116,0.408-0.116,0.642-0.116c0.175,0,0.408,0,0.583,0.116
		c0.233,0,0.408,0.116,0.583,0.233c0.175,0.116,0.35,0.233,0.466,0.466c0.176,0.233,0.292,0.351,0.408,0.583l0,0
		c0.117,0.233,0.233,0.583,0.35,0.816l0,0c0.059,0.233,0.117,0.467,0.176,0.699c0,0.117,0.058,0.35,0.058,0.467
		c0,0.233,0,0.35,0,0.583c0,0.116-0.058,0.233-0.116,0.35l0,0c0,0.233-0.059,0.35-0.117,0.467l0,0
		c-0.058,0.116-0.116,0.232-0.232,0.232l0,0c-0.059,0.117-0.117,0.233-0.175,0.35c-0.117,0-0.175,0.117-0.292,0.117l0,0
		c-0.059,0.116-0.175,0.116-0.233,0.233c-0.116,0-0.175,0-0.291,0.116l0,0c-0.233,0-0.408,0-0.642,0.116
		c-0.232,0-0.408-0.116-0.583-0.116l0,0c-0.232-0.116-0.407-0.233-0.583-0.35c-0.175-0.117-0.35-0.233-0.466-0.467
		c-0.175-0.116-0.292-0.35-0.467-0.583c-0.116-0.232-0.175-0.466-0.291-0.815l0,0c-0.059-0.233-0.175-0.467-0.175-0.7
		c-0.059-0.232-0.059-0.35-0.059-0.583c0-0.232,0-0.35,0.059-0.583l0,0c0-0.116,0.058-0.35,0.116-0.466l0,0
		c0.059-0.116,0.117-0.35,0.233-0.467c0.059-0.116,0.175-0.232,0.291-0.35C193.697,119.585,193.813,119.469,193.931,119.352
		L193.931,119.352z M197.545,117.37l0.058-1.749v-0.116h0.059l1.225-0.467l0.175-0.116l-0.059,0.232l-0.408,1.866v0.116h-0.059
		l-0.815,0.35l-0.175,0.117V117.37L197.545,117.37z M202.324,122.267l-3.264,1.516h-0.117l-0.058-0.116l-0.351-0.816l0,0l0,0
		l0.233-2.915l0,0v-0.116l0,0l0.059-0.233l0,0v-0.233l0,0v-0.116c0-0.116,0.059-0.116,0.059-0.116l0,0l0,0l-1.458,0.583h-0.116l0,0
		l-0.524-1.166l-0.059-0.117h0.116l3.09-1.398h0.059l0.058,0.116l0.408,0.816v0.116l0,0l-0.233,2.682l0,0l-0.058,0.35v0.233l0,0
		c0,0.116-0.059,0.233-0.059,0.35l0,0l1.633-0.699h0.058l0.059,0.116l0.524,1.05v0.116H202.324L202.324,122.267z M204.598,121.218
		l-1.34,0.699h-0.117v-0.116l-3.497-7.112h-0.059l0.116-0.116l1.341-0.583l0.117-0.117v0.117l3.497,7.111l0.059,0.117H204.598
		L204.598,121.218z M205.064,114.339l1.282-0.816l0.117-0.116v0.116l2.099,3.265c0.116,0.116,0.116,0.35,0.232,0.466
		c0.117,0.117,0.117,0.233,0.233,0.351l0,0c0.117,0.116,0.117,0.232,0.233,0.35l0,0l0.233,0.35l0,0v0.116l-1.166,0.7l0,0
		l-0.117-0.117l-0.232-0.233l0,0l0,0c0,0.117,0,0.233-0.117,0.233l0,0c0,0.117,0,0.233,0,0.233
		c-0.116,0.116-0.116,0.233-0.232,0.233c0,0.116-0.117,0.233-0.176,0.233c-0.058,0.116-0.116,0.116-0.232,0.232l0,0
		c-0.175,0.117-0.292,0.117-0.467,0.117c-0.175,0.116-0.291,0.116-0.466,0.116s-0.292-0.116-0.467-0.116
		c-0.116-0.117-0.291-0.233-0.408-0.35c-0.116-0.117-0.291-0.233-0.408-0.467c-0.116-0.116-0.291-0.35-0.408-0.583l0,0l-1.807-2.798
		l-0.059-0.117h0.117l1.282-0.815l0.059-0.117l0.058,0.117l1.69,2.682l0.059,0.116c0.059,0,0.117,0.116,0.175,0.233
		c0.059,0.116,0.117,0.116,0.175,0.233l0,0c0.059,0,0.117,0.116,0.175,0.116c0.059,0,0.117,0.116,0.117,0.116l0,0
		c0.058,0,0.116,0,0.175,0c0,0,0.059,0,0.116-0.116c0.059,0,0.059,0,0.059,0c0.059,0,0.059,0,0.059-0.116l0,0h0.058
		c0-0.117,0-0.117,0-0.117v-0.116c0,0,0,0,0-0.117l0,0l0,0l0,0c-0.058-0.116-0.058-0.116-0.058-0.116l0,0
		c0-0.116,0-0.116-0.059-0.116c0-0.117-0.059-0.117-0.059-0.117l0,0l-1.865-3.031l-0.059-0.116H205.064L205.064,114.339z
		 M205.647,111.308l1.166-0.933l0.116-0.117l0.059,0.117l2.623,3.264h-0.116c0-0.116,0-0.116,0-0.232l0,0l-0.467-1.749v-0.117l0,0
		l1.282-0.933l0.117-0.116l0.116,0.116l0.35,2.682l3.031,1.633l0.233,0.116h-0.233l-1.282,1.05v0.116l-0.116-0.116l-1.865-1.166
		l0.116,0.232l1.049,1.517h0.117l-0.117,0.116l-1.165,0.933h-0.117l0,0l-4.896-6.296l-0.059-0.116H205.647L205.647,111.308z
		 M215.324,111.773L215.324,111.773L215.324,111.773l-0.583-0.699h-0.116c0,0.116,0,0.116-0.117,0.233l0,0c0,0,0,0.116-0.116,0.116
		c0,0.116,0,0.116,0,0.233l0,0l-0.116,0.116c0,0.117,0,0.117,0,0.233c0.116,0,0.116,0.116,0.116,0.116
		c0,0.117,0.116,0.117,0.116,0.233l0,0c0.117,0,0.117,0.117,0.233,0.117l0,0c0,0.116,0.117,0.116,0.117,0.116h0.116
		c0,0.116,0.116,0.116,0.116,0l0,0c0.117,0,0.117,0,0.117,0h0.116l0,0v-0.116l0,0c0,0,0.116,0,0.116-0.117c0,0,0,0,0-0.116l0,0
		c0,0,0,0,0-0.117l0,0c0,0,0,0,0-0.116c0,0,0,0,0-0.116l0,0l0,0C215.324,111.891,215.324,111.891,215.324,111.773L215.324,111.773
		L215.324,111.773L215.324,111.773z M217.539,111.657c0.117,0.116,0.117,0.116,0.233,0.233l0.117,0.116h-0.117l-1.049,0.933l0,0
		h-0.117l-0.232-0.233c0,0,0,0.117,0,0.233c-0.117,0.117-0.117,0.233-0.117,0.35l0,0c-0.116,0.117-0.116,0.233-0.233,0.35
		c0,0-0.116,0.117-0.232,0.233l0,0c-0.117,0.117-0.233,0.117-0.351,0.233c-0.116,0-0.232,0.116-0.466,0.116c-0.116,0-0.233,0-0.35,0
		c-0.117,0-0.35-0.116-0.467-0.116c-0.116,0-0.233-0.116-0.35-0.233c-0.116-0.116-0.233-0.233-0.35-0.35l0,0
		c-0.116-0.116-0.233-0.233-0.35-0.35c0-0.116-0.117-0.233-0.117-0.35l0,0c0-0.117-0.116-0.233-0.116-0.35c0-0.117,0-0.233,0-0.351
		c0-0.116,0-0.232,0.116-0.35c0-0.116,0-0.233,0.117-0.35l0,0c0-0.116,0.116-0.233,0.116-0.35l0,0
		c0.117-0.116,0.117-0.233,0.233-0.35l0,0c0.116-0.117,0.116-0.233,0.233-0.35c0.116,0,0.116-0.117,0.232-0.117v-0.116
		c-0.116,0-0.116,0-0.116-0.117c-0.116,0-0.116,0-0.233,0l0,0c0-0.116-0.116-0.116-0.116-0.116h-0.116l0,0
		c-0.117,0.116-0.117,0.116-0.233,0.116l-0.117,0.117c-0.116,0.116-0.232,0.116-0.232,0.233c-0.117,0.116-0.117,0.116-0.233,0.232
		l0,0c0,0.117-0.117,0.117-0.117,0.233l0,0c0,0.117,0,0.117-0.116,0.233v0.116h-0.116l-0.933-0.583v-0.116l0,0
		c0-0.116,0.116-0.116,0.116-0.233l0,0c0-0.116,0-0.116,0.116-0.233l0,0c0-0.116,0.117-0.232,0.117-0.232
		c0.116-0.117,0.116-0.233,0.232-0.35l0,0c0,0,0.117-0.117,0.233-0.233c0.117-0.117,0.117-0.233,0.233-0.233l0,0
		c0.116-0.116,0.35-0.233,0.467-0.35c0.116,0,0.232-0.117,0.35-0.117l0,0c0.116-0.116,0.233-0.116,0.35-0.116s0.233,0,0.35,0l0,0
		c0.116,0,0.233,0,0.35,0l0,0c0.117,0,0.233,0.116,0.233,0.116c0.116,0.117,0.233,0.117,0.35,0.233c0.117,0,0.117,0.117,0.233,0.117
		l0,0c0.116,0.116,0.233,0.232,0.233,0.35c0.116,0,0.232,0.116,0.232,0.233l1.399,1.516l0,0c0.117,0.116,0.117,0.232,0.233,0.232
		c0.116,0.117,0.116,0.233,0.233,0.233l0,0C217.423,111.54,217.423,111.657,217.539,111.657L217.539,111.657z M141.523,108.859
		l-3.73,4.197l-0.059,0.116l-0.116-0.116l-1.108-1.05h-0.058l0.058-0.116l3.731-4.081l0.059-0.116h0.116l1.107,1.049l0.059,0.117
		H141.523L141.523,108.859z M128.116,81.344l-11.018,2.915l0.991,2.448l8.335-2.215c-2.856,1.399-4.955,2.332-7.753,3.848
		l1.049,2.681l8.044-2.098l-7.461,3.614l0.933,2.449l10.085-5.247l-1.283-3.264c-2.215,0.583-4.43,1.049-6.646,1.632
		c2.041-1.166,4.022-2.215,6.005-3.381L128.116,81.344L128.116,81.344z M123.394,76.564l0.233,1.166
		c-1.982,0.233-3.323,0.233-5.305,0.35C120.188,77.613,121.528,77.03,123.394,76.564L123.394,76.564z M126.717,72.833l-10.843,3.614
		l0.758,4.081l11.309-0.466l-0.466-2.915l-2.099,0.233l-0.175-1.282l1.981-0.466L126.717,72.833L126.717,72.833z M152.833,19.435
		l-1.05,0.583l-1.865-4.43L152.833,19.435L152.833,19.435z M157.438,21.301l-7.053-8.978l-3.557,2.099l4.256,10.493l2.507-1.399
		l-0.875-1.865l1.107-0.7l1.166,1.749L157.438,21.301L157.438,21.301z M168.397,14.771l-1.574-7.345l-2.74,0.583l1.749,8.161l0,0
		c0.059,0.233,0.175,0.816,0.117,1.166l0,0c0,0.117-0.175,0.233-0.35,0.35c-0.583,0.117-0.7-0.816-0.816-1.166l-1.749-8.278
		l-2.74,0.583c0.583,2.682,1.108,5.363,1.749,8.044c0.117,0.466,0.175,0.7,0.292,0.933l0,0c0.116,0.35,0.35,0.699,0.641,0.933l0,0
		c0.175,0.233,0.35,0.35,0.525,0.466l0,0c1.516,0.699,4.139,0.117,4.896-1.516l0,0c0.175-0.35,0.291-0.7,0.291-1.049
		C168.631,16.171,168.455,15.238,168.397,14.771L168.397,14.771z M174.052,11.391l2.798-0.117l-0.116-1.049l0,0
		c0-0.583-0.175-1.749-0.408-2.332l0,0c-0.116-0.233-0.233-0.35-0.466-0.583c-0.176-0.233-0.408-0.35-0.7-0.466l0,0
		c-0.641-0.35-1.398-0.466-2.156-0.35c-0.816,0-1.633,0.233-2.273,0.816l0,0c-0.176,0.117-0.292,0.35-0.408,0.466l0,0
		c-0.233,0.466-0.408,0.816-0.408,1.282l0,0c-0.175,1.749,0.116,4.78,0.408,6.646c0.116,0.35,0.175,0.699,0.291,0.933l0,0
		c0.233,0.583,0.642,0.933,1.166,1.166l0,0c0.292,0.233,0.583,0.233,0.933,0.35c1.399,0.233,3.031-0.117,3.848-1.283
		c0.699-0.933,0.466-2.448,0.408-3.614l-2.74,0.233l0.059,1.399c0,0.233,0.059,0.583,0.059,0.7c0,0.233-0.059,0.35-0.059,0.466l0,0
		c-0.059,0.117-0.117,0.233-0.233,0.233l0,0c-0.059,0.117-0.175,0.117-0.291,0.117c-0.525,0.117-0.583-0.233-0.7-0.699
		c-0.291-1.866-0.466-4.78-0.466-6.762c0-0.117,0.058-0.35,0.058-0.35l0,0c0.059-0.116,0.117-0.233,0.176-0.35l0,0
		c0.116,0,0.232-0.117,0.35-0.117l0,0c0.232,0,0.466,0.117,0.583,0.233l0,0c0.116,0.233,0.116,0.933,0.175,1.166L174.052,11.391
		L174.052,11.391z M191.016,8.243l-4.722-0.816l-1.924,11.076l4.896,0.816l0.35-1.982l-2.156-0.466l0.466-2.681l1.865,0.35
		l0.292-1.982l-1.808-0.35l0.408-2.332l1.982,0.35L191.016,8.243L191.016,8.243z M196.379,9.875l-2.682-0.816l-3.439,10.727
		l4.372,1.399l0.642-1.982l-1.749-0.583L196.379,9.875L196.379,9.875z M201.334,23.982l4.604-10.26l-2.099-0.933l-2.273,5.014
		l0.583-5.713l-2.099-0.933l-4.604,10.26l2.099,0.933l2.273-5.014l-0.525,5.713L201.334,23.982L201.334,23.982z M204.773,26.431
		l6.004-9.561l-2.448-1.399l-5.946,9.561L204.773,26.431L204.773,26.431z M211.244,26.314l-1.05-0.7l3.614-3.498L211.244,26.314
		L211.244,26.314z M211.244,31.327l5.596-9.91l-3.265-2.565l-8.103,7.928l2.273,1.749l1.399-1.399l0.933,0.7l-1.05,1.749
		L211.244,31.327L211.244,31.327z M184.021,9.175l0.116-2.099l-5.014-0.35l-0.116,2.099l2.04,0.117l-2.856,7.461l-0.116,1.516
		l5.305,0.35l0.116-2.099l-2.273-0.117L184.021,9.175L184.021,9.175z M143.738,16.287l-2.099,1.516l1.399,4.43l-2.623-3.614
		l-2.273,1.632l6.471,9.21l2.273-1.632l-2.973-4.314l4.08,3.498l2.332-1.632l-5.014-3.964L143.738,16.287L143.738,16.287z
		 M136.16,26.314l1.865-1.749l-0.232-0.233l0,0c-0.525-0.583-1.225-1.399-2.099-1.283c-0.175,0-0.467,0-0.7,0.117l0,0
		c-1.107,0.35-2.331,1.399-2.739,2.448l0,0c-0.175,0.467-0.292,0.933-0.175,1.399c0.175,0.583,0.641,1.166,1.049,1.632
		c0.583,0.583,1.282,1.166,2.216,1.166l0,0c0.116,0,0.35,0,0.641-0.116c0.35,0,0.7,0,1.107-0.117l0,0
		c0.525-0.117,1.283-0.233,1.808-0.233l0,0c0.116,0.117,0.291,0.117,0.524,0.233l0,0c0.175,0.233,0.408,0.35,0.642,0.583l0,0
		c0.116,0.116,0.175,0.233,0.233,0.35c0.058,0.117,0.116,0.233,0.116,0.35l0,0c0.059,0.233,0,0.466-0.175,0.583
		c-0.059,0.117-0.175,0.117-0.233,0.117l0,0c-0.116,0.117-0.175,0.117-0.291,0l0,0c-0.059,0-0.176,0-0.292-0.117
		s-0.233-0.233-0.408-0.35l0,0l-0.874-0.933l-1.865,1.749c0.524,0.583,1.224,1.283,1.924,1.632l0,0
		c0.232,0.117,0.466,0.233,0.699,0.233c0.291,0,0.524,0,0.874-0.117l0,0c0.642-0.117,1.225-0.583,1.749-1.049
		c0.467-0.466,0.874-0.933,1.107-1.516l0,0c0.117-0.35,0.175-0.583,0.175-0.816c0.117-1.049-1.224-2.448-2.099-3.031
		c-0.758-0.583-1.282-0.583-2.156-0.466c-0.642,0-2.565,0.583-3.031,0.35l0,0c-0.117,0-0.233-0.116-0.408-0.233
		c-0.233-0.117-0.642-0.583-0.758-0.933l0,0c0-0.117,0-0.233,0.058-0.35l0,0c0,0,0.059-0.116,0.117-0.233l0,0
		c0.116,0,0.175-0.117,0.233-0.117l0,0c0.116,0,0.175,0,0.232,0l0,0c0.117,0,0.175,0.117,0.292,0.117
		C135.577,25.731,135.928,26.081,136.16,26.314L136.16,26.314z M137.909,36.457l-8.395-7.695l-1.574,2.099l6.005,5.13l-6.995-3.73
		l-1.69,2.332l5.654,5.247l-6.646-3.848l-1.574,2.099l9.91,5.596l2.099-2.915c-1.69-1.516-3.031-2.915-4.722-4.547
		c1.981,1.166,3.73,2.099,5.829,3.031L137.909,36.457L137.909,36.457z M127.3,46.018h0.116l-0.524,1.166
		c-1.516-0.933-2.856-1.866-4.314-2.798C124.385,45.085,125.492,45.318,127.3,46.018L127.3,46.018z M132.255,44.852l-10.959-3.265
		l-1.749,3.848l9.619,6.063l1.225-2.565l-1.808-1.049l0.524-1.166l1.924,0.699L132.255,44.852L132.255,44.852z M120.363,49.749
		l-2.099-0.583l-1.399,4.78l2.041,0.583l0.524-1.982l6.704,4.314l1.516,0.466l1.457-5.13l-2.04-0.583l-0.583,2.215L120.363,49.749
		L120.363,49.749z M117.04,69.452c0-0.233,0-0.699,0.175-0.816c0.35-0.466,2.157-0.466,2.448-0.117
		c0.175,0.233,0.175,0.583,0.175,0.933H117.04L117.04,69.452z M119.255,59.542l0.35-2.449c-0.642-0.116-1.632-0.35-2.215-0.116l0,0
		c-0.233,0.116-0.408,0.233-0.583,0.35c-0.641,0.583-0.991,1.516-1.107,2.448l0,0c-0.117,0.816-0.059,1.749,0.408,2.448
		c0.117,0.233,0.233,0.35,0.466,0.467l0,0c0.583,0.466,1.866,0.699,2.624,0.699c0.408,0,0.816-0.117,1.166-0.35
		c1.166-0.466,2.39-2.798,3.498-2.915c0.35,0,0.933,0,1.282,0.116l0,0c0.117,0.117,0.233,0.117,0.292,0.233l0,0
		c0.175,0.117,0.232,0.35,0.232,0.583c-0.058,0-0.058,0.117-0.116,0.233l0,0c-0.059,0.117-0.116,0.117-0.175,0.233h-0.059
		c-0.058,0-0.175,0-0.35,0c-0.116,0-0.291,0-0.524,0l0,0l-1.282-0.233l-0.35,2.565l0.641,0.117c0.816,0.117,1.924,0.233,2.623-0.35
		c0.233-0.117,0.408-0.35,0.583-0.583l0,0c0.408-0.583,0.642-1.283,0.7-1.865c0.116-0.7,0.116-1.283-0.117-1.982l0,0
		c-0.059-0.233-0.175-0.466-0.291-0.699c-0.117-0.233-0.292-0.35-0.467-0.466l0,0c-0.699-0.466-2.273-0.583-3.147-0.583
		c-0.408,0-0.7,0.117-0.991,0.233l0,0c-0.233,0.117-0.583,0.35-0.933,0.7c-0.7,0.7-1.632,2.332-2.565,2.332
		c-0.35,0-0.933,0-1.225-0.233l0,0c-0.058-0.117-0.116-0.233-0.175-0.233l0,0c0-0.116,0-0.233,0-0.35l0,0
		c0-0.117,0.059-0.117,0.059-0.233c0.058-0.116,0.116-0.116,0.175-0.116l0,0c0.233-0.117,0.641-0.117,0.875,0H119.255
		L119.255,59.542z M115.349,72.25l11.251-0.117l-0.059-2.798h-5.13c0-0.117,0-0.35,0-0.583c0.233-0.816,4.255-0.583,5.13-0.583
		l-0.059-2.565c-1.166,0-4.372-0.233-5.188,0.583c-0.408,0.35-0.583,1.166-0.7,1.749c-0.117-1.049-0.058-1.865-1.224-2.098
		c-1.049-0.233-3.031-0.117-3.672,0.933C115.116,67.703,115.349,71.084,115.349,72.25L115.349,72.25z"/>
	<path fill="none" stroke="#FFFFFF" stroke-width="2.8347" stroke-miterlimit="10" d="M241.674,136.724H114.475
		c-6.762,18.421-20.695,33.461-38.533,41.506h165.731V136.724L241.674,136.724z"/>
	<path fill-rule="evenodd" fill="#00448F" d="M241.674,136.724H114.475c-6.762,18.421-20.695,33.461-38.533,41.506h165.731V136.724
		L241.674,136.724z"/>
	<path fill-rule="evenodd" fill="#00448F" d="M188.742,39.838c2.215-5.363,2.448-6.296,5.188-9.91
		c-1.283-0.35-2.799-0.35-3.79,1.749c-0.933-2.215-3.264-2.215-4.43,0.116c1.516-0.35,3.322-0.233,3.381,1.749
		c0,1.865-1.107,2.215-2.04,2.215c-0.991,0-1.865-0.816-2.157-1.516c-1.107,1.749-2.915,1.982-4.022,0.933
		c-1.049-1.049-0.758-2.448-0.175-3.265c0.467-0.816,2.448-1.166,3.439,0c-0.059-2.682-2.915-4.197-4.547-1.982
		c-0.175-1.865-1.225-3.847-2.332-3.964c-0.991,0-2.156,1.982-2.332,3.964c-1.923-2.215-4.547-0.933-4.488,2.099
		c0.816-1.283,2.391-0.7,2.973-0.233c0.525,0.35,1.108,2.099,0.176,3.148c-0.875,1.049-2.799,1.283-4.14-0.699
		c-0.408,0.583-0.758,1.399-1.981,1.399c-1.225,0-1.982-1.049-1.982-2.215c0.059-1.166,1.166-2.448,3.265-1.632
		c-1.225-2.332-3.614-2.215-4.547,0c-1.05-1.865-2.273-2.215-3.906-2.098c2.682,4.081,3.673,5.712,5.072,10.143H188.742
		L188.742,39.838z M165.308,41.121h23.376v4.081h-23.26C165.424,45.201,165.366,41.237,165.308,41.121L165.308,41.121z
		 M153.008,77.729l-1.633-2.098c6.879,0,12.941-1.166,19.296-3.964l1.341,3.848l-2.157,2.682c4.955,0.233,9.619,0.116,14.69-0.233
		l-2.448-2.448l1.398-3.848c6.005,2.915,13.175,4.197,19.121,3.964l-1.399,1.865l1.69,2.215c-6.762,0-10.317-0.583-15.215-1.866
		v3.848c-6.878,0.35-14.106,0.699-21.394,0.117l0.059-3.964c-4.605,1.283-9.27,1.866-14.924,1.749L153.008,77.729L153.008,77.729z
		 M197.952,78.779l0.059-0.233h0.175c0.059,0,0.117,0,0.117,0c0.058,0,0.058,0,0.058-0.117l0.059-1.865c0.059,0,0-0.117,0-0.117
		s-0.059,0-0.116,0h-0.176v-0.233l2.274,0.117v0.933h-0.176c-0.058-0.233-0.175-0.466-0.291-0.583
		c-0.116-0.116-0.35-0.233-0.583-0.233c-0.116,0-0.175,0-0.233,0c0,0.117-0.058,0.117-0.058,0.233l-0.059,0.7h0.059
		c0.175,0,0.291,0,0.35,0c0.116-0.117,0.175-0.233,0.175-0.466h0.175l-0.059,1.166h-0.175c0-0.117-0.059-0.233-0.116-0.35
		c-0.059-0.116-0.175-0.116-0.35-0.116h-0.059v0.816c-0.059,0.117,0,0.117,0,0.233c0.059,0,0.116,0,0.233,0
		c0.291,0,0.524,0,0.699-0.117c0.116-0.117,0.233-0.35,0.35-0.583h0.175l-0.116,0.933L197.952,78.779L197.952,78.779z
		 M196.087,77.38l-0.116,0.816c0,0.116,0,0.116,0,0.116c0,0.117,0.059,0.117,0.116,0.117h0.233l-0.059,0.233l-1.341-0.233
		l0.059-0.117h0.175c0.059,0,0.117,0,0.117,0c0.058-0.116,0.058-0.116,0.058-0.233l0.233-1.749c0-0.117,0-0.117,0-0.117
		c-0.059,0-0.059-0.116-0.175-0.116h-0.175v-0.117l1.574,0.117c0.291,0.116,0.524,0.116,0.699,0.233
		c0.116,0.117,0.175,0.35,0.175,0.583c-0.059,0.117-0.116,0.233-0.292,0.35c-0.116,0.117-0.35,0.117-0.582,0.117l0,0
		c0.116,0.117,0.232,0.117,0.291,0.233c0.116,0,0.175,0.116,0.175,0.35c0.059,0,0.059,0.117,0.059,0.233
		c0,0.233,0.058,0.35,0.116,0.35s0.059,0,0.117-0.117c0,0,0.058-0.117,0.058-0.233h0.175l0,0c0,0.233-0.058,0.35-0.175,0.466
		c-0.116,0.116-0.291,0.116-0.466,0.116c-0.117,0-0.233,0-0.292-0.116c-0.116,0-0.175-0.117-0.175-0.233
		c-0.059,0-0.059-0.117-0.059-0.35c0-0.117,0.059-0.117,0.059-0.117c0-0.233-0.059-0.35-0.116-0.466
		c-0.059,0-0.175-0.117-0.35-0.117c-0.059,0-0.059,0-0.059,0C196.087,77.38,196.087,77.38,196.087,77.38L196.087,77.38z
		 M196.204,76.447l-0.117,0.7h0.059c0,0,0.059,0,0.116,0c0.233,0.116,0.408,0.116,0.525,0c0.116,0,0.175-0.117,0.232-0.35
		c0-0.117,0-0.233-0.116-0.35c-0.059-0.117-0.233-0.117-0.408-0.233c-0.116,0-0.233,0-0.233,0.117
		C196.204,76.331,196.204,76.331,196.204,76.447L196.204,76.447z M192.123,77.963v-0.117h0.175c0.059,0,0.117,0,0.175,0l0.059-0.117
		l0.291-1.749c0-0.117,0-0.233,0-0.233s-0.058,0-0.116,0l-0.175-0.116v-0.117l2.273,0.35l-0.116,0.933h-0.175
		c0-0.35-0.059-0.466-0.176-0.583c-0.116-0.233-0.35-0.233-0.583-0.35c-0.116,0-0.232,0-0.232,0c-0.059,0-0.059,0.117-0.059,0.117
		l-0.175,0.816h0.059c0.175,0,0.291,0,0.35,0c0.116-0.117,0.175-0.233,0.233-0.35h0.175l-0.175,1.166l-0.176-0.117
		c0-0.117-0.058-0.233-0.116-0.35c-0.059-0.117-0.175-0.117-0.291-0.117h-0.059l-0.175,0.816c0,0,0,0.117,0.059,0.117
		c0,0,0.058,0.117,0.175,0.117c0.291,0,0.524,0,0.699-0.117s0.291-0.233,0.408-0.466h0.175l-0.175,0.933L192.123,77.963
		L192.123,77.963z M191.832,77.03c-0.117,0.35-0.292,0.466-0.525,0.583c-0.232,0.116-0.466,0.116-0.758,0.116
		c-0.175-0.116-0.291-0.116-0.408-0.233c-0.116,0-0.232-0.117-0.291-0.233c-0.175-0.116-0.233-0.35-0.291-0.583
		c0-0.116,0-0.35,0.058-0.583c0-0.233,0.059-0.35,0.175-0.466c0.117-0.117,0.233-0.233,0.35-0.35
		c0.176-0.117,0.292-0.233,0.467-0.233s0.408,0,0.583,0.116c0.116,0,0.233,0,0.35,0.117c0.059,0,0.175,0.117,0.233,0.233
		l0.233-0.233l0.175,0.117l-0.233,0.933h-0.175c0-0.233-0.059-0.466-0.116-0.699c-0.117-0.117-0.292-0.233-0.467-0.35
		c-0.233,0-0.408,0-0.524,0.117c-0.175,0.233-0.292,0.466-0.408,0.816c-0.059,0.466-0.117,0.7,0,0.933
		c0.059,0.116,0.175,0.233,0.466,0.35c0.175,0,0.351,0,0.525-0.117c0.175,0,0.291-0.233,0.408-0.466L191.832,77.03L191.832,77.03z
		 M187.343,75.398c-0.116,0.35-0.116,0.7-0.116,0.933c0.059,0.117,0.175,0.35,0.35,0.35c0.233,0.117,0.408,0,0.583-0.116
		c0.116-0.117,0.291-0.35,0.408-0.816c0.116-0.35,0.116-0.583,0.116-0.816c-0.059-0.233-0.175-0.35-0.35-0.35
		c-0.233-0.117-0.408-0.117-0.583,0.116C187.635,74.815,187.46,75.048,187.343,75.398L187.343,75.398z M186.702,75.165
		c0.058-0.116,0.116-0.35,0.232-0.466c0.117-0.116,0.233-0.233,0.408-0.233c0.117-0.117,0.292-0.233,0.467-0.233s0.35,0,0.583,0.117
		c0.175,0,0.35,0.117,0.466,0.233c0.117,0.116,0.233,0.233,0.292,0.466c0.116,0.116,0.116,0.233,0.175,0.466
		c0,0.117-0.059,0.35-0.117,0.466c-0.058,0.233-0.116,0.35-0.232,0.466c-0.117,0.117-0.233,0.233-0.351,0.35
		c-0.175,0.117-0.35,0.117-0.524,0.117s-0.35,0-0.583,0c-0.175-0.117-0.35-0.233-0.466-0.35c-0.117,0-0.233-0.233-0.292-0.35
		c-0.116-0.233-0.116-0.35-0.116-0.466C186.585,75.515,186.644,75.398,186.702,75.165L186.702,75.165z M183.263,75.281l0.058-0.117
		c0.175,0,0.292,0,0.35,0c0.059-0.116,0.117-0.116,0.176-0.35l0.524-1.399v-0.117c-0.059,0-0.059-0.117-0.117-0.117
		c0,0-0.058,0-0.116-0.117l0,0l0.059-0.116l0.815,0.35l0.7,1.865l0.35-0.816c0.059-0.233,0.059-0.35,0-0.35
		c0-0.117-0.116-0.233-0.233-0.233l0.059-0.233l0.933,0.466l-0.059,0.116c-0.116,0-0.233,0-0.291,0
		c-0.059,0-0.117,0.117-0.175,0.233l-0.7,1.865l-0.232-0.116l-0.816-2.332l-0.467,1.166c-0.058,0.117-0.116,0.233-0.058,0.35
		c0,0.117,0.116,0.117,0.291,0.233l-0.116,0.117L183.263,75.281L183.263,75.281z M154.64,78.313c0,0.117,0,0.117,0.059,0.233
		c0,0,0.059,0,0.116,0h0.233v0.117l-1.399,0.116v-0.233h0.175c0.117,0,0.117,0,0.175,0c0,0,0-0.117,0-0.233v-1.749
		c0-0.117,0-0.117-0.058-0.117c0,0-0.059-0.117-0.117-0.117h-0.232v-0.117h1.573c0.292,0,0.583,0,0.7,0.117
		c0.175,0.117,0.291,0.35,0.291,0.583s-0.116,0.35-0.291,0.466c-0.175,0.233-0.467,0.233-0.875,0.233c-0.116,0-0.175,0-0.232,0
		c0,0-0.059,0-0.117,0V78.313L154.64,78.313z M154.64,76.564v0.816c0,0.117,0.059,0.117,0.059,0.117c0.059,0,0.059,0,0.116,0
		c0.233,0,0.408-0.117,0.524-0.233c0.117,0,0.117-0.116,0.117-0.35s-0.059-0.35-0.117-0.466c-0.058,0-0.232-0.117-0.466-0.117
		c-0.116,0-0.175,0-0.233,0.117C154.64,76.447,154.64,76.447,154.64,76.564L154.64,76.564z M157.438,77.38l0.059,0.816
		c0,0,0,0.116,0.059,0.116c0,0,0.059,0,0.116,0h0.175l0.059,0.233l-1.341,0.117l-0.059-0.233h0.175c0.117,0,0.175,0,0.175,0
		c0-0.117,0-0.117,0-0.233l-0.116-1.749c-0.059-0.117-0.059-0.117-0.059-0.117c-0.058-0.117-0.116-0.117-0.175-0.117l-0.175,0.117
		v-0.233l1.516-0.117c0.35,0,0.583,0,0.758,0.117c0.117,0.116,0.233,0.233,0.233,0.466c0.059,0.116,0,0.35-0.116,0.466
		c-0.175,0.117-0.35,0.117-0.583,0.233l0,0c0.116,0,0.233,0,0.35,0.117c0.116,0,0.175,0.117,0.233,0.233
		c0,0.116,0.058,0.233,0.116,0.35c0,0.117,0.059,0.233,0.175,0.233c0,0,0.059,0,0.059-0.117c0.059,0,0.059-0.117,0.059-0.233h0.175
		l0,0c0,0.233-0.059,0.35-0.117,0.466c-0.116,0.117-0.233,0.233-0.408,0.233s-0.232,0-0.35-0.117c-0.058,0-0.175,0-0.233-0.117
		c0-0.116-0.058-0.233-0.058-0.35s-0.059-0.117-0.059-0.233c0-0.116-0.059-0.35-0.116-0.35c-0.117-0.117-0.233-0.117-0.408-0.117
		c-0.059,0-0.059,0-0.059,0.117C157.438,77.38,157.438,77.38,157.438,77.38L157.438,77.38z M157.321,76.447l0.059,0.7
		c0.058,0,0.058,0,0.058,0c0.059,0,0.059,0,0.117,0c0.233,0,0.466-0.117,0.524-0.117c0.116-0.117,0.175-0.233,0.116-0.466
		c0-0.117-0.058-0.233-0.116-0.35c-0.116,0-0.291-0.116-0.466,0c-0.117,0-0.233,0-0.233,0
		C157.321,76.214,157.321,76.331,157.321,76.447L157.321,76.447z M160.586,75.631l0.059,0.233h-0.233c-0.059,0-0.059,0-0.117,0
		c0,0.117,0,0.117,0,0.233l0.233,1.749c0,0.117,0.059,0.117,0.059,0.117c0.059,0,0.059,0,0.175,0h0.175l0.059,0.233l-1.399,0.116
		v-0.116l0.175-0.117c0.059,0,0.117,0,0.117,0c0.058,0,0.058-0.117,0-0.117l-0.233-1.865c0,0,0-0.117-0.059-0.117
		c0,0-0.059,0-0.116,0h-0.233v-0.117L160.586,75.631L160.586,75.631z M161.46,75.748l0.292,1.632
		c0.058,0.117,0.116,0.233,0.175,0.233c0.059,0.116,0.175,0.116,0.35,0.116v0.117l-0.991,0.233v-0.233c0.117,0,0.233,0,0.233-0.117
		c0.059-0.116,0.059-0.233,0-0.35l-0.292-1.516c0-0.117,0-0.117-0.058-0.117c0,0-0.059,0-0.117,0h-0.175l-0.058-0.116l1.107-0.233
		l0.874,1.399l0.175-1.632l1.107-0.233l0.059,0.233h-0.175c-0.059,0-0.116,0-0.116,0c-0.059,0.117-0.059,0.117-0.059,0.233
		l0.35,1.749c0,0.116,0.059,0.116,0.059,0.116c0.059,0,0.116,0,0.175,0h0.175v0.117l-1.282,0.35v-0.233h0.116
		c0.117,0,0.117-0.117,0.175-0.117c0,0,0,0,0-0.117l-0.35-1.865l-0.35,2.332l-0.175,0.117L161.46,75.748L161.46,75.748z
		 M165.541,74.465l0.059,0.233h-0.176c-0.058,0.117-0.116,0.117-0.116,0.117c-0.059,0,0,0.117,0,0.117l0.35,1.282
		c0.059,0.233,0.117,0.35,0.233,0.466c0.116,0.117,0.291,0.117,0.524,0c0.059,0,0.175,0,0.233-0.116
		c0.059,0,0.116-0.117,0.175-0.117c0-0.117,0.059-0.117,0.059-0.233c0-0.116,0-0.233-0.059-0.466l-0.233-0.933
		c-0.058-0.117-0.116-0.233-0.175-0.233c-0.058,0-0.175,0-0.291,0h-0.059l-0.059-0.233l0.933-0.233l0.059,0.233
		c-0.116,0-0.175,0.117-0.233,0.117c0,0.117,0,0.233,0,0.35l0.292,0.933c0,0.117,0.059,0.35,0.059,0.35c0,0.116,0,0.233-0.059,0.35
		c0,0.117-0.117,0.233-0.233,0.35s-0.291,0.117-0.524,0.233c-0.35,0.117-0.642,0.117-0.816,0c-0.233-0.117-0.35-0.233-0.408-0.583
		l-0.408-1.283c0-0.116,0-0.116-0.058-0.116c0-0.117-0.059-0.117-0.117,0h-0.175l-0.058-0.233L165.541,74.465L165.541,74.465z
		 M167.873,74.115l0.524,1.516c0.058,0.233,0.116,0.233,0.233,0.35c0.058,0,0.175,0,0.291,0l0.059,0.117l-0.933,0.35l-0.059-0.117
		c0.116-0.117,0.233-0.117,0.233-0.233c0.058-0.117,0-0.233-0.059-0.35l-0.467-1.516c-0.058,0-0.058-0.117-0.116-0.117
		c0,0-0.059,0-0.116,0l-0.175,0.117l-0.059-0.233l1.049-0.35l1.05,1.283v-1.632l1.049-0.35l0.059,0.233h-0.175
		c-0.059,0-0.116,0-0.116,0.117c0,0,0,0,0,0.117l0.583,1.749c0.058,0,0.058,0.117,0.116,0.117c0,0,0.059,0,0.116,0l0.175-0.117
		l0.059,0.233l-1.224,0.35l-0.059-0.116l0.116-0.117c0.059,0,0.117,0,0.117,0c0.058-0.117,0.058-0.117,0-0.233l-0.583-1.749v2.448
		h-0.175L167.873,74.115L167.873,74.115z M172.652,81.577v-0.233c0.176,0,0.233,0,0.292-0.116c0.059,0,0.059-0.117,0.059-0.35
		v-1.516h-0.059c0-0.116-0.059-0.116-0.116-0.116c0,0-0.059-0.117-0.117-0.117h-0.059v-0.117h0.875l1.341,1.516v-0.933
		c0-0.117,0-0.233-0.059-0.35c-0.059,0-0.175-0.117-0.35-0.117v-0.117h1.049v0.117c-0.175,0.117-0.232,0.117-0.291,0.117
		c-0.059,0.116-0.059,0.233-0.059,0.35v1.982h-0.233l-1.69-1.982v1.282c0,0.233,0.059,0.35,0.117,0.35
		c0.058,0.116,0.175,0.116,0.291,0.116v0.233H172.652L172.652,81.577z M176.384,80.294c0,0.35,0.059,0.7,0.175,0.816
		c0.116,0.233,0.233,0.35,0.466,0.35c0.176,0,0.351-0.117,0.467-0.35c0.116-0.117,0.175-0.466,0.175-0.816
		c0-0.466-0.059-0.699-0.175-0.933c-0.116-0.116-0.233-0.233-0.467-0.233c-0.232,0-0.35,0.117-0.466,0.233
		C176.442,79.595,176.384,79.945,176.384,80.294L176.384,80.294z M175.684,80.294c0-0.233,0.059-0.35,0.117-0.583
		c0.059-0.117,0.116-0.233,0.233-0.35c0.116-0.116,0.291-0.233,0.466-0.35c0.117,0,0.292-0.117,0.524-0.117
		c0.176,0,0.408,0.117,0.525,0.117c0.175,0.117,0.35,0.233,0.466,0.35c0.117,0.117,0.175,0.233,0.233,0.35
		c0.059,0.233,0.116,0.35,0.116,0.583c0,0.117-0.058,0.35-0.116,0.467c-0.059,0.116-0.116,0.35-0.233,0.466
		c-0.116,0.116-0.291,0.233-0.466,0.233c-0.175,0.117-0.35,0.117-0.525,0.117c-0.175,0-0.407,0-0.524-0.117
		c-0.175,0-0.291-0.117-0.466-0.233c-0.117-0.117-0.175-0.35-0.233-0.466C175.742,80.645,175.684,80.411,175.684,80.294
		L175.684,80.294z M178.54,81.577v-0.233c0.117,0,0.233,0,0.292-0.116c0.059,0,0.059-0.117,0.059-0.35v-1.516h-0.059
		c-0.059-0.116-0.059-0.116-0.116-0.116c-0.059,0-0.059-0.117-0.117-0.117h-0.059v-0.117h0.875l1.341,1.516v-0.933
		c0-0.117,0-0.233-0.059-0.35c-0.059,0-0.175-0.117-0.35-0.117v-0.117h1.049v0.117c-0.175,0.117-0.232,0.117-0.291,0.117
		c-0.059,0.116-0.059,0.233-0.059,0.35v1.982h-0.232l-1.691-1.982v1.282c0,0.233,0.059,0.35,0.117,0.35
		c0.058,0.116,0.175,0.116,0.291,0.116v0.233H178.54L178.54,81.577z M193.58,87.873h0.351l-0.176-1.399L193.58,87.873L193.58,87.873
		z M195.096,89.039h-0.99l-0.059-0.35h-0.642l-0.058,0.35h-0.991l0.874-3.381h1.166L195.096,89.039L195.096,89.039z M191.657,89.039
		h-0.934v-3.381h0.934V89.039L191.657,89.039z M187.343,89.039v-3.381h0.875l0.758,2.099V87.64l-0.117-1.166v-0.816h0.933v3.381
		h-0.933l-0.699-1.982l0.059,1.049v0.933H187.343L187.343,89.039z M184.661,89.039l-0.058-3.381h1.748v0.816h-0.815v0.466h0.699
		v0.816h-0.699v0.466h0.815v0.816H184.661L184.661,89.039z M182.68,84.375c0.116,0,0.232,0,0.35,0.116
		c0.116,0,0.175,0.233,0.175,0.35c0,0.116-0.059,0.233-0.175,0.35c-0.117,0.117-0.233,0.117-0.35,0.117
		c-0.117,0-0.292,0-0.408-0.117c-0.059,0-0.117-0.233-0.117-0.35c0-0.117,0.059-0.35,0.117-0.35
		C182.388,84.375,182.563,84.375,182.68,84.375L182.68,84.375L182.68,84.375z M181.339,89.039l1.224-2.682l-0.524,0.117h-0.524
		v-0.816h2.332l-1.166,2.682l0.408-0.117h0.641v0.816H181.339L181.339,89.039z M179.298,86.474c-0.175,0-0.291,0.116-0.291,0.35
		c-0.059,0.117-0.059,0.35-0.059,0.583c0,0.233,0,0.466,0.059,0.583c0.059,0.116,0.116,0.233,0.291,0.233l0,0
		c0.117,0,0.233-0.117,0.292-0.233c0.059-0.117,0.116-0.35,0.116-0.583c0-0.233-0.058-0.466-0.116-0.583
		C179.531,86.59,179.415,86.474,179.298,86.474L179.298,86.474z M178.016,87.29c0-0.466,0.059-1.049,0.35-1.283
		c0.233-0.35,0.525-0.466,0.875-0.466c0.408,0,0.699,0.117,0.991,0.466c0.291,0.233,0.407,0.816,0.407,1.283
		s-0.116,0.933-0.291,1.282c-0.233,0.35-0.642,0.583-1.107,0.583c-0.35,0-0.642-0.233-0.875-0.466
		c-0.291-0.35-0.407-0.816-0.407-1.399H178.016L178.016,87.29z M175.684,88.106l-0.175,0.117v-0.816l0.117-0.117v-1.632h0.933v1.283
		l0.466-0.233v0.816l-0.466,0.233v0.466h0.758v0.816h-1.69L175.684,88.106L175.684,88.106z M173.41,87.873h0.408l-0.232-1.399
		L173.41,87.873L173.41,87.873z M174.926,89.039h-0.99l-0.059-0.35h-0.642l-0.058,0.35h-0.991l0.874-3.381h1.166L174.926,89.039
		L174.926,89.039z M169.155,89.039l1.224-2.682l-0.466,0.117h-0.524v-0.816h2.331l-1.166,2.682l0.408-0.117h0.583v0.816H169.155
		L169.155,89.039z M167.173,89.039h-1.049l-0.583-1.516v1.516h-0.933v-3.381h0.933v1.399l0.524-1.399h0.991l-0.758,1.632
		L167.173,89.039L167.173,89.039z M162.393,86.474c-0.116,0-0.232,0.116-0.291,0.35c0,0.117,0,0.35,0,0.583
		c0,0.233,0,0.466,0.059,0.583c0,0.116,0.116,0.233,0.232,0.233l0,0c0.175,0,0.292-0.117,0.292-0.233
		c0.059-0.117,0.116-0.35,0.116-0.583c0-0.233-0.058-0.466-0.058-0.583C162.685,86.59,162.567,86.474,162.393,86.474L162.393,86.474
		z M161.11,87.29c0-0.466,0.116-1.049,0.35-1.283c0.233-0.35,0.525-0.466,0.875-0.466c0.408,0,0.758,0.117,1.049,0.466
		c0.233,0.233,0.35,0.816,0.35,1.283s-0.116,0.933-0.291,1.282c-0.233,0.35-0.642,0.583-1.107,0.583
		c-0.35,0-0.642-0.233-0.875-0.466c-0.233-0.35-0.408-0.816-0.408-1.399H161.11L161.11,87.29z M158.953,87.173
		c0.117,0,0.233,0,0.292-0.117c0.116,0,0.116-0.116,0.116-0.233c0-0.233,0-0.35-0.058-0.35c-0.117-0.117-0.233-0.117-0.351-0.117
		V87.173L158.953,87.173z M158.021,89.039v-3.381h0.875c0.466,0,0.874,0,1.107,0.233c0.233,0.233,0.291,0.466,0.291,0.816
		c0,0.233,0,0.466-0.116,0.583c-0.059,0.117-0.233,0.233-0.408,0.35l0.699,1.399h-0.99l-0.525-1.399v1.399H158.021L158.021,89.039z
		 M184.836,96.733h-1.516V92.42h-0.583v-1.166h2.041L184.836,96.733L184.836,96.733z M179.474,92.304
		c-0.117,0-0.233,0.116-0.292,0.232c-0.059,0.117-0.116,0.351-0.116,0.583c0,0.233,0.058,0.35,0.058,0.467
		c0.117,0.116,0.233,0.233,0.351,0.233c0.175,0,0.232-0.117,0.35-0.233c0.058-0.117,0.116-0.35,0.116-0.467
		c0-0.232-0.059-0.466-0.116-0.583C179.765,92.42,179.648,92.304,179.474,92.304L179.474,92.304L179.474,92.304z M179.531,94.635
		h-0.058c-0.117,0.117-0.176,0.233-0.233,0.233c-0.117,0-0.233,0-0.292,0c-0.291,0-0.699-0.233-0.933-0.466
		c-0.233-0.351-0.408-0.934-0.408-1.399c0-0.583,0.233-1.05,0.583-1.399s0.816-0.466,1.341-0.466c0.525,0,0.991,0.116,1.283,0.466
		c0.35,0.35,0.524,0.816,0.524,1.399c0,0.35-0.117,0.699-0.233,1.166c-0.175,0.466-0.35,1.049-0.642,1.632l-0.524,0.933h-1.574
		L179.531,94.635L179.531,94.635z M175.102,92.304c-0.176,0-0.292,0.116-0.351,0.232c-0.058,0.117-0.116,0.351-0.116,0.583
		c0,0.233,0.059,0.35,0.116,0.467c0.059,0.116,0.175,0.233,0.351,0.233c0.116,0,0.232-0.117,0.291-0.233
		c0.059-0.117,0.116-0.35,0.116-0.467c0-0.232-0.058-0.466-0.058-0.583C175.393,92.42,175.218,92.304,175.102,92.304L175.102,92.304
		L175.102,92.304z M175.102,94.635L175.102,94.635c-0.117,0.117-0.233,0.233-0.292,0.233s-0.175,0-0.233,0
		c-0.35,0-0.699-0.233-0.99-0.466c-0.233-0.351-0.351-0.934-0.351-1.399c0-0.583,0.175-1.05,0.583-1.399
		c0.35-0.35,0.816-0.466,1.283-0.466c0.524,0,0.99,0.116,1.282,0.466c0.35,0.35,0.524,0.816,0.524,1.399
		c0,0.35-0.059,0.699-0.233,1.166c-0.116,0.466-0.35,1.049-0.641,1.632l-0.525,0.933h-1.573L175.102,94.635L175.102,94.635z
		 M171.604,96.733h-1.516V92.42h-0.583v-1.166h2.099V96.733L171.604,96.733z M166.823,50.332c0.991,0.233,1.69,1.166,2.623,0
		C168.105,50.564,167.931,49.282,166.823,50.332L166.823,50.332z M187.401,50.332c-1.05,0.233-1.633,1.166-2.623,0
		C186.177,50.564,186.235,49.282,187.401,50.332L187.401,50.332z M183.67,62.107c0.117,1.399,0.176,2.448-0.116,3.614
		c-0.466,2.565-4.78,4.313-6.354,5.713c-1.458-1.399-4.897-2.099-6.005-5.48c-0.233-1.166-0.233-2.448-0.116-3.847
		c0.232-2.215,0.466-4.78-0.117-8.161c2.332,0,4.256-0.35,6.238-1.283c2.156,0.933,4.372,1.283,6.646,1.283
		C183.263,57.327,183.495,59.892,183.67,62.107L183.67,62.107L183.67,62.107z M185.303,58.143c-0.059-1.632,0-3.264,0.233-4.896
		c0.232-0.117,0.175,0.466,0.175,0.466c1.107,1.399,2.273,2.915,2.332,3.498c0,0.583-0.758,1.516-1.341,1.283
		C186.294,58.376,185.827,58.143,185.303,58.143L185.303,58.143z M185.536,61.291c-0.059-0.233-0.059-0.466-0.059-0.699
		c0.175,0,0.291,0,0.467,0C185.886,60.824,185.711,61.058,185.536,61.291L185.536,61.291L185.536,61.291z M169.389,60.591
		c0,0.233-0.059,0.466-0.059,0.816c-0.233-0.233-0.467-0.583-0.524-0.816C168.98,60.591,169.214,60.591,169.389,60.591
		L169.389,60.591L169.389,60.591z M169.505,59.192c0,0.117-0.059,0.233-0.059,0.466c-0.058,0-0.058,0-0.116,0
		C169.33,59.425,169.389,59.309,169.505,59.192L169.505,59.192z M169.33,53.246c0.175,1.632,0.233,3.265,0.233,4.78
		c-0.525,0-1.108,0.35-1.574,0.466c-0.583,0.233-1.341-0.816-1.341-1.283c0.059-0.699,1.225-2.099,2.39-3.498
		C169.038,53.596,168.922,53.013,169.33,53.246L169.33,53.246z M169.271,61.99c-0.058,2.682,0.292,5.363,1.282,6.529
		c1.517,1.632,4.839,3.498,6.821,4.78c1.923-1.282,4.955-3.265,5.829-3.964c2.915-2.449,2.273-4.664,2.39-7.345l0,0
		c0.642,0,1.574-0.35,1.574-0.816c0-0.583-0.175-0.933-0.116-1.049c0.35-0.467,0.933-0.933,1.398-0.816
		c0.758,0.816,1.05,0.466,1.516,0l0.117,0.35l0.35-0.233c0.933,0.35,2.273,1.166,2.856,1.516c-2.273-0.117-3.673,0.117-4.664,1.166
		c-0.291,0.35-0.291,1.399,0,2.099l0.583-0.466c0.292,0.816,1.341,3.147,0.351,3.614c-1.108,0.699-2.099,1.282-2.624,1.049
		c-0.35-0.117-0.116-0.583-0.408-0.816c-0.699-0.583-1.865,0.233-2.506,1.749c0.466-0.233,0.874-0.583,1.341-0.583
		c-0.467,0.466-1.166,1.166-1.05,2.099c0.583-0.466,0.933-0.7,1.225-0.7l0.466,0.117c0.059,0.35-0.466,0.933-0.175,1.399
		c0.583-0.466,1.924-0.35,1.516-1.749l1.05-0.7c0.99-0.233,1.748,0,2.623,0.35c-0.233-0.233-0.408-0.233-0.408-0.583
		c0.642,0.233,1.05,0.233,1.282,0.117c-0.291-0.233-0.291-0.233-0.408-0.699c0.467,0.233,1.283,0.116,1.574,0
		c-0.408-0.117-0.583-0.233-0.816-0.583c0.7,0,1.108-0.117,1.225-0.7l-0.758-0.117l-0.059-0.583c0-0.35-0.758-1.166-0.524-2.099
		l0.933,0.117v-0.699l0.991,0.35l-0.35-1.283h1.398c-0.175,1.399-0.641,2.915-1.224,3.614l-0.175,0.117
		c-0.35,0.233,1.166,1.632,1.749,1.399l0.058-0.583c-0.058,0.116,2.273,0.116,2.157,0.816c-0.467,5.713-3.147,0.816-4.372,3.964
		c0.583-0.35,1.457-0.35,1.807,0c-0.641,0.466-0.933,1.049-0.874,1.516c0.292-0.233,1.632-0.816,1.865-0.466
		c0.292,0.233-0.233,1.399-0.233,1.399c0.758,0,1.574-1.166,1.458-1.516c-0.7-1.516,0.35-2.098,2.04-1.865l-0.116-0.7
		c0.291,0,0.699-0.116,0.874-0.466c-0.291-0.116-0.583-0.35-0.583-0.583c0.467-0.116,0.699-0.233,0.933-0.466l-0.408-0.583
		c0.292,0.116,0.642-0.233,0.991-0.583l-0.933-0.233l-0.059-0.816c-0.232-0.7-1.516,0.583-1.807-0.466
		c0.059-1.166,1.341-0.933,1.574-1.632h-0.467l-0.233-0.233c0.408,0,0.7-0.233,0.933-0.583l-0.815-0.116v-0.933
		c1.107,0.233,2.099-0.233,2.099-1.632c-0.175-1.632-0.991-2.915-1.808-4.081c0,0-0.175,1.399-0.408,0.7
		c0.117,0-2.331-1.516-1.981-2.682c0-0.117,3.206,1.049,4.139-1.749l-1.166,0.116c0.35-0.35,0.816-1.399,1.05-2.332
		c-1.341,1.516-3.965,0.117-3.965,2.565c0,0.35-0.815,0.816-0.815,1.749c0.175,2.448,4.197,2.448,3.847,5.946
		c0,0.7-1.224,0.933-2.215,0.117c-0.933-0.583-1.981-1.632-2.507-2.798c0-0.35,0.467-0.233,0.467-0.233
		c-0.933-0.7-1.457-2.915-1.574-3.848c0.292-0.233,0.408-0.233,0.699,0c0-0.583-0.582-0.699-0.641-0.933
		c0.466-0.933-0.408-1.749-0.758-2.099c0-0.233,0.35-0.233,0.583-0.233c-0.059-0.35-0.583-0.933-0.933-1.166
		c-0.059-0.117,0.35-0.117,0.524,0c-0.233-0.933-1.107-1.866-1.982-2.565c0.175-0.35-0.408-1.866-0.758-1.749
		c0,0.583-0.116,1.283-0.291,1.516c-0.7-0.233-0.875-0.233-1.808,0.117c0.059,0.466-1.282,0.7-1.573,1.749
		c0.291,0,1.457,0,1.573,0.233c0.117,0.233-0.99,0.933-1.341,1.866c0.525-0.233,1.633-0.933,1.808-0.233
		c-0.059,0.7-1.05,1.749-1.924,2.099c0,0,1.107,0,1.049,0c0,0.466-0.35,0.933-0.582,0.933c-0.642-0.466-1.866-1.049-1.749-1.399
		c0.232-0.816-0.292-1.399-1.05-1.049c0-0.7-1.224-0.583-1.224-0.233c-0.408-0.466-1.05-0.116-0.933,0.466
		c-2.157-0.116-4.431-0.699-5.83-1.632c-1.282,0.933-3.497,1.516-5.596,1.632c0.116-0.583-0.583-1.049-1.05-0.583
		c0-0.35-1.107-0.467-1.107,0.233c-0.816-0.35-1.225,0.35-1.05,1.166c0.059,0.35-1.107,0.933-1.807,1.282
		c-0.175,0-0.524-0.466-0.583-0.816h1.05c-0.875-0.35-1.808-1.399-1.924-2.099c0.291-0.7,1.282,0,1.748,0.233
		c-0.291-0.933-1.34-1.749-1.224-1.982c0.059-0.116,1.166-0.116,1.516-0.116c-0.35-1.049-1.574-1.399-1.516-1.866
		c-0.991-0.233-1.225-0.233-1.865,0c-0.117-0.233-0.292-0.933-0.292-1.516c-0.35-0.117-0.874,1.283-0.758,1.632
		c-0.874,0.816-1.69,1.749-1.981,2.565c0.175-0.117,0.641,0,0.583,0.117c-0.408,0.117-0.991,0.699-0.991,1.166
		c0.175,0,0.524,0,0.524,0.233c-0.35,0.35-1.166,1.166-0.699,2.099c-0.117,0.117-0.583,0.35-0.583,0.816
		c0.175-0.116,0.35-0.233,0.641,0c-0.175,1.049-0.583,3.265-1.516,3.848c0,0,0.408-0.117,0.467,0.35
		c-0.583,1.166-1.632,2.215-2.565,2.798c-0.933,0.699-2.215,0.466-2.215-0.117c-0.35-3.498,3.673-3.498,3.848-5.946
		c0.116-0.933-0.816-1.516-0.816-1.866c0-2.332-2.507-0.933-3.964-2.448c0.233,0.816,0.642,1.982,1.166,2.332l-1.282-0.233
		c0.933,2.915,4.139,1.749,4.139,1.865c0.35,1.166-2.04,2.682-1.982,2.682c-0.175,0.7-0.35-0.7-0.35-0.816
		c-0.874,1.166-1.69,2.565-1.865,4.197c0,1.399,0.991,1.749,2.157,1.632v0.816l-0.816,0.117c0.175,0.35,0.641,0.583,0.874,0.699
		l-0.233,0.233l-0.466-0.117c0.233,0.816,1.457,0.583,1.574,1.632c-0.292,1.049-1.458-0.233-1.749,0.583l-0.117,0.816l-0.933,0.233
		c0.292,0.35,0.7,0.583,1.05,0.583l-0.524,0.466c0.291,0.233,0.583,0.466,0.99,0.466c0,0.35-0.291,0.583-0.466,0.699
		c0.116,0.233,0.466,0.466,0.816,0.35l-0.117,0.699c1.574-0.233,2.682,0.466,1.982,1.982c-0.175,0.35,0.699,1.399,1.457,1.516
		c0,0-0.408-1.166-0.233-1.399c0.233-0.35,1.516,0.233,1.808,0.35c0.116-0.35-0.175-0.933-0.816-1.516
		c0.292-0.35,1.225-0.233,1.865,0c-1.341-3.148-3.964,1.865-4.488-3.848c-0.059-0.7,2.332-0.7,2.273-0.816l0.059,0.583
		c0.524,0.117,2.099-1.282,1.69-1.399l-0.175-0.233c-0.583-0.583-1.05-2.099-1.166-3.498h1.341l-0.408,1.283l1.166-0.466v0.699
		l0.815-0.116c0.233,0.933-0.524,1.865-0.524,2.099l-0.058,0.699h-0.759c0.176,0.7,0.583,0.816,1.225,0.816
		c-0.233,0.35-0.408,0.466-0.699,0.583c0.175,0.116,1.049,0.116,1.457,0c-0.116,0.466-0.116,0.35-0.408,0.699
		c0.292,0,0.7,0,1.225-0.233c0,0.466-0.175,0.466-0.292,0.583c0.758-0.233,1.633-0.466,2.565-0.233l1.049,0.7
		c-0.466,1.282,0.933,1.166,1.574,1.749c0.292-0.466-0.233-1.049-0.233-1.399l0.525-0.117c0.232,0,0.641,0.117,1.107,0.7
		c0.116-0.933-0.467-1.749-0.991-2.099c0.466,0,0.874,0.35,1.282,0.583c-0.641-1.516-1.69-2.332-2.332-1.749
		c-0.407,0.233-0.175,0.7-0.407,0.816c-0.642,0.233-1.633-0.35-2.682-1.166c-1.05-0.466,0-2.682,0.35-3.498l0.583,0.35
		c0.291-0.583,0.291-1.749,0-2.099c-1.05-0.933-2.391-1.283-4.664-1.049c0.525-0.35,1.865-1.283,2.799-1.632l0.407,0.233
		l0.059-0.233c0.467,0.35,0.816,0.7,1.516-0.117c0.467,0,1.107,0.466,1.457,0.933c0,0.116-0.116,0.466-0.116,0.933
		c0,0.583,0.991,0.933,1.69,0.816C169.271,61.99,169.271,61.99,169.271,61.99L169.271,61.99z M191.132,48.932l-1.69-0.583v1.166
		L191.132,48.932L191.132,48.932z M163.034,48.815l1.69-0.583l-0.059,1.166L163.034,48.815L163.034,48.815z M215.44,85.425
		c-2.798,3.031-3.031,5.13-7.345,7.928c-0.933,0.583-3.439,0.933-5.946,1.865c1.458-0.933,3.848-3.147,4.723-5.712
		C209.729,88.922,211.36,85.891,215.44,85.425L215.44,85.425z M207.047,86.357c-0.758,3.498-2.157,6.529-5.83,8.395
		c0.408-0.816,0.933-1.749,0.991-2.799c-1.399,0.351-2.564,0.816-3.73,1.399C200.751,89.855,204.365,88.922,207.047,86.357
		L207.047,86.357z M203.024,81.577c0.233,2.448,0.466,4.897,0.233,6.995c-1.866,0.933-4.14,2.799-5.946,5.479
		c0.291-0.815,0.933-3.73,0.583-4.08C199.235,87.057,201.392,85.075,203.024,81.577L203.024,81.577L203.024,81.577z M214.858,45.784
		c1.165,5.13,2.914,9.327,0.116,15.273C212.992,54.762,211.943,50.332,214.858,45.784L214.858,45.784z M209.845,58.026
		c-0.699-0.816-1.282-1.866-1.982-3.731c-1.166-1.166-3.265-1.749-5.713-2.332c2.448,2.099,3.265,5.713,4.897,6.996
		c0.815,0.699,1.748,1.166,2.798,2.099V58.026L209.845,58.026z M213.226,61.99c1.865,2.798,1.982,6.296,1.05,9.677
		c-0.233-1.516-0.467-2.565-0.816-3.847c-0.583,1.749-1.399,3.381-2.798,4.896C210.777,69.452,211.71,65.838,213.226,61.99
		L213.226,61.99L213.226,61.99z M218.589,54.762c-0.467,5.83,0.583,9.444-1.166,11.192c-0.583,0.466-1.282,1.283-1.982,2.682
		c0-1.982-0.582-3.148-0.35-5.247C215.44,60.358,216.957,56.977,218.589,54.762L218.589,54.762z M219.871,64.438
		c-1.049,5.83-1.516,9.327-5.946,12.358C214.275,71.201,216.374,67.12,219.871,64.438L219.871,64.438z M207.222,66.188
		c1.107,1.516,2.04,3.031,3.089,4.081c-0.116,3.498-0.582,6.762-1.516,9.327C207.63,78.196,207.163,73.299,207.222,66.188
		L207.222,66.188z M213.226,70.035c1.166,3.381,0.233,7.112-1.282,10.26c0.233-1.399,0.35-2.798,0-3.964
		c-0.699,0.7-1.399,1.632-2.332,2.565C210.428,75.281,211.71,72.367,213.226,70.035L213.226,70.035z M206.056,74.349
		c1.282,1.865,1.398,3.731,2.156,5.713c-1.632,2.332-3.031,4.314-4.43,7.229c0.058-1.399,0-3.265-0.059-4.897
		C204.89,80.761,205.355,77.846,206.056,74.349L206.056,74.349z M207.222,88.339c2.739-2.448,4.372-5.596,4.139-10.143
		c-2.915,2.215-5.479,5.712-7.229,9.91c1.807-1.282,3.322-2.681,4.431-3.614C208.445,85.658,207.979,86.824,207.222,88.339
		L207.222,88.339z M218.822,73.183c-1.516,8.278-5.13,12.475-11.192,15.856c2.331-2.332,3.614-4.664,4.08-7.345
		C213.459,77.38,216.141,75.631,218.822,73.183L218.822,73.183z M214.392,63.156c0.583-3.964-1.632-5.83-3.614-9.444
		c-0.933,5.247-0.816,8.744,0.933,10.609c0.233-1.166,0.699-2.332,1.282-3.614C213.459,61.407,213.925,62.34,214.392,63.156
		L214.392,63.156z M211.71,65.255c-0.699,1.516-1.049,2.915-1.282,4.43c-2.216-2.798-2.216-6.179-5.014-10.376
		C210.078,60.125,210.428,63.855,211.71,65.255L211.71,65.255z M193.639,42.52c2.565-1.166,4.78-1.516,7.753-0.7
		c0.758,1.516,0.991,2.332,1.808,4.197C199.935,45.318,196.787,44.269,193.639,42.52L193.639,42.52z M198.36,30.978
		c3.906,4.664,8.803,6.529,8.919,11.775C204.598,38.323,198.652,39.022,198.36,30.978L198.36,30.978L198.36,30.978z M192.531,34.708
		c3.73,0,7.17,1.166,8.452,3.381l-2.681-0.699c0.99,1.399,1.457,2.565,2.739,3.847C197.952,41.237,195.038,38.556,192.531,34.708
		L192.531,34.708L192.531,34.708z M203.782,46.601c-1.399-0.117-2.799-0.466-4.022-0.816c1.982,3.031,4.372,5.713,7.694,7.579
		c-0.232-1.399-0.641-2.682-1.049-4.081C205.355,48.583,204.423,47.767,203.782,46.601L203.782,46.601z M205.298,43.219l2.332,1.166
		c-1.108-2.565-3.731-4.547-8.337-6.179c4.022,4.081,3.148,7.812,6.996,10.143C205.764,46.601,205.764,44.735,205.298,43.219
		L205.298,43.219z M207.63,37.74c3.031,5.247,7.461,7.345,4.663,12.941C210.544,46.367,207.279,47.533,207.63,37.74L207.63,37.74z
		 M206.289,44.502c4.722,3.731,6.471,7.578,6.82,11.775c-1.05-1.982-1.633-2.798-2.565-3.964c-0.466,1.282-0.699,2.915-0.699,4.664
		C208.212,54.179,206.988,49.865,206.289,44.502L206.289,44.502z M200.459,96.15c1.225-0.699,4.722-1.748,6.938-1.632
		c-1.924,2.332-3.964,4.896-6.005,5.829c-0.933-0.116-4.022-0.35-5.246-0.116C198.594,98.716,200.109,96.268,200.459,96.15
		L200.459,96.15z M201.159,101.048c-4.372,3.497-6.238,5.13-12.009,3.264c1.516-1.398,3.556-2.681,5.654-3.147
		C196.903,100.581,199.002,100.465,201.159,101.048L201.159,101.048z M200.983,92.77c-0.524,2.798-1.573,3.964-3.73,6.063
		c-0.583,0.467-1.224,1.166-1.749,1.283c-1.049,0.466-2.448,1.049-3.497,1.398c1.748-1.398,2.099-2.682,2.215-4.197
		c0.059-0.116,2.273-2.215,4.197-3.381C199.293,93.469,200.168,93.119,200.983,92.77L200.983,92.77L200.983,92.77z M190.199,94.402
		c0,2.331-0.059,3.381-0.758,5.013c-1.574,0.583-4.663,1.982-7.462,5.363C182.505,96.967,187.285,97.899,190.199,94.402
		L190.199,94.402z M193.348,105.828c-3.848,2.681-7.054,3.147-11.543,0.582c2.273,0.117,4.314-0.466,6.005-1.516
		C189.791,104.778,191.599,105.245,193.348,105.828L193.348,105.828z M197.194,89.505c0.233,2.332-0.175,3.381-0.758,5.013
		c-1.049,0.933-3.381,2.915-6.296,4.313C190.957,91.837,194.514,93.236,197.194,89.505L197.194,89.505L197.194,89.505z
		 M144.205,58.259c0.758-0.816,1.399-2.099,2.099-3.847c1.166-1.166,3.265-1.866,5.713-2.332c-2.391,2.099-3.206,5.596-4.896,6.996
		c-0.816,0.699-1.749,1.166-2.915,2.099V58.259L144.205,58.259z M135.169,73.299c1.517,8.395,5.188,12.592,11.135,15.856
		c-2.215-2.332-3.556-4.547-3.964-7.345c-1.749-4.314-4.372-6.063-7.171-8.395V73.299L135.169,73.299z M153.357,96.501
		c-1.225-0.7-4.78-1.633-6.995-1.399c1.981,2.332,4.139,4.78,6.179,5.713c0.933-0.233,3.964-0.467,5.247-0.233
		C155.281,98.949,153.707,96.617,153.357,96.501L153.357,96.501z M152.774,101.514c4.488,3.381,6.354,4.896,12.067,2.915
		c-1.517-1.399-3.557-2.565-5.713-3.031C156.972,100.931,154.873,100.814,152.774,101.514L152.774,101.514L152.774,101.514z
		 M160.702,106.061c3.964,2.565,7.171,2.915,11.601,0.233c-2.273,0.233-4.372-0.35-6.063-1.282
		C164.259,104.895,162.451,105.361,160.702,106.061L160.702,106.061L160.702,106.061z M156.447,89.855
		c-0.175,2.215,0.291,3.264,0.933,4.897c1.049,0.933,3.381,2.914,6.354,4.197C162.743,92.07,159.187,93.469,156.447,89.855
		L156.447,89.855z M146.595,37.623c-3.089,5.13-7.636,7.229-4.722,12.825C143.506,46.018,146.653,47.184,146.595,37.623
		L146.595,37.623z M147.761,44.619c-5.071,3.498-6.82,8.044-6.82,12.242c0.875-2.215,1.749-3.964,2.623-5.247
		c0.642,1.283,0.642,3.731,0.642,5.479C145.837,54.295,147.003,50.098,147.761,44.619L147.761,44.619z M139.541,45.784
		c-1.748,5.014-3.206,8.861-0.407,15.157C140.882,54.645,141.99,50.564,139.541,45.784L139.541,45.784z M139.658,63.389
		c-0.524-4.081,1.69-5.829,3.498-9.56c0.933,5.247,0.933,8.744-0.759,10.609c-0.35-1.049-0.758-2.332-1.457-3.614
		C140.416,61.524,140.066,62.457,139.658,63.389L139.658,63.389z M135.694,54.762c0.408,5.946-0.758,9.56,0.933,11.309
		c0.641,0.583,1.341,1.399,2.099,2.798c-0.059-2.099,0.291-4.197,0-6.413C138.317,59.425,137.21,57.093,135.694,54.762
		L135.694,54.762z M142.456,65.255c0.583,1.632,0.933,2.915,1.107,4.43c2.391-2.798,1.982-7.462,5.188-10.26
		C143.972,60.241,143.563,63.972,142.456,65.255L142.456,65.255L142.456,65.255z M140.766,62.223
		c-1.749,2.798-1.924,6.296-0.991,9.677c0.233-1.516,0.408-2.565,0.758-3.848c0.583,1.749,1.574,3.381,2.74,4.897
		C143.156,69.685,142.34,66.071,140.766,62.223L140.766,62.223L140.766,62.223z M134.295,64.672
		c1.05,5.946,1.457,9.327,5.829,12.358C139.833,71.434,137.793,67.354,134.295,64.672L134.295,64.672z M146.828,66.42
		c-0.991,1.516-1.981,3.031-3.09,4.197c0.176,3.498,0.642,6.646,1.516,9.327C146.479,78.429,146.887,73.533,146.828,66.42
		L146.828,66.42z M140.94,70.151c-1.166,3.381-0.175,7.229,1.341,10.376c-0.291-1.399-0.35-2.798-0.059-4.081
		c0.758,0.816,1.458,1.632,2.332,2.682C143.738,75.515,142.573,72.483,140.94,70.151L140.94,70.151z M148.927,74.815
		c-1.282,1.749-2.332,3.498-3.031,5.479c1.633,2.215,2.915,3.964,4.256,6.996c-0.117-1.516-0.059-2.915,0.524-4.314
		C149.451,81.344,148.985,78.196,148.927,74.815L148.927,74.815L148.927,74.815z M148.811,43.336l-2.391,1.166
		c1.108-2.448,3.673-4.547,8.453-6.179c-4.197,4.081-3.265,7.812-7.054,10.26C148.402,46.717,148.286,44.852,148.811,43.336
		L148.811,43.336z M150.385,46.717c1.34-0.117,2.739-0.467,4.139-0.933c-1.982,3.031-4.897,5.946-8.22,7.812
		c0.699-1.282,0.816-2.798,1.225-4.081C148.577,48.815,149.626,47.767,150.385,46.717L150.385,46.717z M155.806,31.094
		c-3.964,4.664-8.919,6.646-9.036,11.775C149.51,38.439,155.456,39.139,155.806,31.094L155.806,31.094z M161.46,34.825
		c-3.672,0-7.054,1.399-8.452,3.614l3.265-0.933c-1.05,0.933-2.449,2.682-2.856,3.848C156.447,41.237,158.953,38.672,161.46,34.825
		L161.46,34.825L161.46,34.825z M160.411,42.753c-2.565-1.282-4.722-1.632-7.753-0.699c-0.7,1.399-0.934,2.448-1.808,4.081
		C154.057,45.551,157.263,44.385,160.411,42.753L160.411,42.753L160.411,42.753z M146.828,88.572
		c-2.739-2.448-4.313-5.596-4.08-10.143c2.914,2.215,5.479,5.713,7.111,9.793c-1.69-1.166-3.265-2.565-4.313-3.498
		C145.662,85.891,146.129,87.057,146.828,88.572L146.828,88.572z M151.143,81.811c-0.292,2.448-0.408,4.78-0.233,6.878
		c1.865,1.049,3.672,2.915,5.421,5.596c-0.35-1.632-0.175-2.914-0.408-4.43C154.581,87.057,152.716,85.308,151.143,81.811
		L151.143,81.811z M138.434,85.658c2.799,3.031,2.856,5.83,7.403,7.928c1.399,0.583,3.498,0.933,6.238,1.749
		c-1.516-0.933-4.197-2.915-5.072-5.597C144.146,89.272,142.456,86.124,138.434,85.658L138.434,85.658z M146.828,86.59
		c0.875,3.615,2.216,6.529,6.005,8.511c-0.525-0.933-1.05-1.749-1.05-2.798c1.282,0.35,2.507,0.815,3.673,1.398
		C153.124,90.205,149.626,89.272,146.828,86.59L146.828,86.59L146.828,86.59z M152.716,93.236c0.583,2.682,1.69,3.847,3.906,5.945
		c0.583,0.467,1.282,1.05,1.749,1.283c1.049,0.35,2.506,0.815,3.556,1.282c-1.808-1.399-2.157-2.682-2.332-4.197
		c0-0.116-2.332-2.099-4.256-3.265C154.465,93.819,153.591,93.586,152.716,93.236L152.716,93.236z M163.617,94.519
		c0,2.332,0.059,3.381,0.816,5.014c1.632,0.466,4.722,1.865,7.637,5.13C171.312,96.851,166.59,98.017,163.617,94.519L163.617,94.519
		z M179.007,109.442l1.225-1.283l-1.166-0.466c1.749-0.816,3.381-1.749,3.381-1.749c2.856,0,5.654-1.516,7.17-2.682
		c2.273-1.982,3.206-3.147,3.964-5.479c-3.614,1.865-8.394,3.73-11.134,7.345l-5.071,1.982l-5.771-2.099
		c-2.798-3.498-7.637-5.247-11.31-6.995c0.816,2.331,1.749,3.497,4.14,5.362c1.516,1.166,4.313,2.565,7.229,2.449
		c0,0,1.981,1.049,3.905,1.981l-1.69,0.699l1.282,1.166c0.059,0,0.991-0.466,2.157-1.049
		C178.249,109.092,178.948,109.442,179.007,109.442L179.007,109.442z M176.675,53.596c0-0.466,1.283,0,1.225,1.049v0.466
		c-0.524-0.117-0.933-0.233-1.225-0.233V53.596L176.675,53.596z M177.899,56.627l-0.175,5.48l-0.875-0.466l-0.116-5.13
		C177.375,56.511,177.725,56.511,177.899,56.627L177.899,56.627z M177.725,63.272l-0.117,3.265c-0.175-0.233-0.407-0.35-0.641-0.466
		l-0.059-3.148L177.725,63.272L177.725,63.272z M177.607,67.586l-0.116,2.682c0,0.35-0.35,0.35-0.408,0
		c0-1.049-0.059-1.982-0.059-3.031C177.2,67.237,177.433,67.47,177.607,67.586L177.607,67.586z M174.81,55.928
		c0.175-0.35,0.583-0.583,1.05-0.7c1.224-0.233,3.147,0,3.847,1.632c0.408,1.166-0.699,2.332-1.69,2.682v-0.933
		c1.341-0.816,1.282-2.448-1.632-2.215C175.276,56.511,174.168,57.21,174.81,55.928L174.81,55.928z M176.675,60.241
		c-0.35,0.233-0.641,0.35-0.583,0.816c0.059,0.466,1.574,1.282,2.507,1.865c0.524,0.35,0.524,1.166-0.116,1.516
		c-0.175,0-0.408,0.117-0.7,0.233v-0.466c0.642-0.35,0.7-0.7,0.408-0.816c-0.641-0.35-2.156-1.049-2.682-1.865
		c-0.466-0.816,0.292-1.866,1.108-2.215L176.675,60.241L176.675,60.241z M176.792,65.021c-0.35,0.233-0.583,0.233-0.467,0.7
		c0.059,0.35,2.273,1.282,2.215,2.215c-0.058,0.583-0.466,0.816-0.874,1.049v-0.466c0.467-0.233,0.583-0.699,0.233-0.933
		c-0.758-0.7-2.099-1.166-2.216-1.865c-0.116-0.583,0.351-0.816,1.108-1.166V65.021L176.792,65.021z M176.908,69.335
		c-0.35,0.116-0.758,0.233-1.341,0.233c-0.233,0.117,0.642-0.35,1.341-0.699V69.335L176.908,69.335z"/>
	<path fill-rule="evenodd" fill="#FFFFFF" d="M172.595,160.158c1.282-4.664,2.448-9.094,3.556-13.641h0.116
		c1.166,4.547,2.449,9.094,3.79,13.641H172.595L172.595,160.158z M200.343,174.266h7.637v-27.282h9.21v-6.412h-25.883v6.412h9.036
		V174.266L200.343,174.266z M181.164,165.871l2.623,8.627h8.22l-10.493-33.693h-9.969l-10.318,33.693h7.87l2.448-8.627H181.164
		L181.164,165.871z M136.277,174.266h21.103v-6.413h-13.408v-27.281h-7.694V174.266L136.277,174.266z"/>
	<path fill="none" stroke="#FFFFFF" stroke-width="2.8347" stroke-miterlimit="10" d="M76.117,26.081H24.468V3.229h86.8
		L85.502,57.21c16.439,12.125,27.107,31.712,27.107,53.748c0,36.842-29.905,66.805-66.805,66.805
		c-16.323,0-31.304-5.945-42.905-15.739l10.26-19.004c8.278,8.511,19.878,13.758,32.645,13.758c25.3,0,45.819-20.52,45.819-45.819
		c0-22.386-15.973-40.923-37.075-45.004L76.117,26.081L76.117,26.081z"/>
	<path fill="#00448F" d="M76.117,26.081H24.468V3.229h86.8L85.502,57.21c16.439,12.125,27.107,31.712,27.107,53.748
		c0,36.842-29.905,66.805-66.805,66.805c-16.323,0-31.304-5.945-42.905-15.739l10.26-19.004
		c8.278,8.511,19.878,13.758,32.645,13.758c25.3,0,45.819-20.52,45.819-45.819c0-22.386-15.973-40.923-37.075-45.004L76.117,26.081
		L76.117,26.081z"/>
</g>
</svg>
