<svg width="89" height="85" viewBox="0 0 89 85" fill="none" xmlns="http://www.w3.org/2000/svg">
<path fill-rule="evenodd" clip-rule="evenodd" d="M0.485474 0.417877H88.5146V58.0521H0.485474V0.417877Z" fill="#005E94"/>
<path fill-rule="evenodd" clip-rule="evenodd" d="M0.485474 0.417877H88.5146V58.0521H0.485474V0.417877Z" fill="#0C2048"/>
<path fill-rule="evenodd" clip-rule="evenodd" d="M68.8734 48.3602L68.6043 50.9334H62.3189V50.732H62.5544C62.7282 50.7376 62.902 50.6985 63.0534 50.6146C63.1543 50.5586 63.2272 50.4635 63.2665 50.3572C63.3169 50.1335 63.3394 49.9097 63.3225 49.6804V44.8585C63.3394 44.6235 63.3169 44.383 63.2665 44.1537C63.216 44.0474 63.1319 43.9635 63.031 43.9075C62.8852 43.8292 62.7226 43.7957 62.56 43.8013H62.3245V43.5999H66.098V43.8013H65.7896C65.6158 43.7901 65.442 43.8292 65.2906 43.9131C65.1953 43.9747 65.1168 44.0642 65.0775 44.1704C65.027 44.3942 65.0046 44.6235 65.0214 44.8529V49.5238C65.0046 49.7643 65.027 50.0048 65.0831 50.2398C65.128 50.3461 65.2177 50.43 65.3298 50.4691C65.5373 50.5139 65.7503 50.5307 65.9634 50.5195H66.5465C66.8717 50.5307 67.1969 50.4579 67.4885 50.3125C67.7576 50.1559 67.9819 49.9321 68.1389 49.6636C68.3688 49.2497 68.5426 48.8133 68.6603 48.3546H68.8734V48.3602V48.3602ZM57.9959 43.846C57.3343 43.8516 56.7512 44.2599 56.5157 44.8753C56.2017 45.6416 56.0615 46.4695 56.1064 47.2974C56.0335 48.2707 56.2522 49.2441 56.74 50.0943C57.0203 50.5027 57.4913 50.7432 57.9847 50.7209C58.3043 50.732 58.6183 50.6369 58.8818 50.4523C59.2295 50.1615 59.4762 49.7699 59.5939 49.3336C59.7845 48.6903 59.8743 48.0246 59.8518 47.3533C59.8855 46.6206 59.7958 45.8822 59.5883 45.1773C59.4706 44.7802 59.2407 44.4278 58.9211 44.1593C58.6576 43.9579 58.3323 43.846 57.9959 43.846ZM57.9343 43.4992C58.9547 43.4153 59.964 43.7901 60.6817 44.5173C61.3881 45.2445 61.7694 46.2234 61.7414 47.2359C61.7526 48.1197 61.4722 48.9868 60.9396 49.6916C60.2611 50.6258 59.1566 51.1628 58.0015 51.118C56.8577 51.174 55.7532 50.6761 55.0467 49.7755C54.486 49.0539 54.1888 48.1589 54.2112 47.2415C54.1832 46.229 54.5701 45.2445 55.2822 44.5229C55.9718 43.8068 56.9418 43.4321 57.9343 43.4992ZM49.6808 43.846C49.0192 43.8516 48.4361 44.2599 48.2006 44.8753C47.8866 45.6416 47.7464 46.4695 47.7913 47.2974C47.7184 48.2707 47.9371 49.2441 48.4249 50.0943C48.7052 50.5027 49.1762 50.7432 49.6696 50.7209C49.9892 50.732 50.3032 50.6369 50.5667 50.4523C50.9144 50.1615 51.1611 49.7699 51.2788 49.3336C51.4694 48.6903 51.5592 48.0246 51.5367 47.3533C51.5704 46.6206 51.4807 45.8822 51.2732 45.1773C51.1555 44.7802 50.9256 44.4278 50.606 44.1593C50.3424 43.9579 50.0172 43.846 49.6808 43.846ZM49.6191 43.4992C50.6396 43.4153 51.6489 43.7901 52.3666 44.5173C53.073 45.2445 53.4543 46.2234 53.4263 47.2359C53.4431 48.1197 53.1627 48.9812 52.6357 49.6916C51.9572 50.6313 50.8471 51.1684 49.6864 51.118C48.5426 51.174 47.438 50.6761 46.7316 49.7755C46.1765 49.0539 45.8849 48.1645 45.9074 47.2583C45.8793 46.2458 46.2662 45.2612 46.9783 44.5396C47.6623 43.8236 48.6267 43.4376 49.6191 43.4992ZM40.0873 47.4149V49.686C40.0705 49.9209 40.0929 50.1559 40.1434 50.3852C40.1939 50.4915 40.278 50.5754 40.3789 50.6313C40.5247 50.7097 40.6873 50.7432 40.8499 50.7376H41.0854V50.939H37.3904V50.732H37.6259C37.7997 50.7376 37.9679 50.6985 38.1193 50.6146C38.2146 50.5586 38.2931 50.4635 38.3268 50.3572C38.3828 50.1335 38.4053 49.9097 38.3884 49.6804V44.8585C38.4053 44.6235 38.3828 44.383 38.3268 44.1537C38.2819 44.0474 38.1978 43.9635 38.0969 43.9075C37.9511 43.8292 37.7885 43.7957 37.6259 43.8013H37.3904V43.5999H41.091V43.8013H40.8611C40.6873 43.7901 40.5135 43.8292 40.3621 43.9131C40.2612 43.9691 40.1883 44.0642 40.149 44.1704C40.0929 44.3942 40.0761 44.6235 40.0929 44.8529V46.9282H42.5936V44.8585C42.6105 44.6235 42.588 44.383 42.5376 44.1537C42.4871 44.0474 42.403 43.9635 42.3021 43.9075C42.1563 43.8292 41.9937 43.7957 41.8255 43.8013H41.6012V43.5999H45.2962V43.8013H45.0663C44.8925 43.7901 44.7187 43.8292 44.5673 43.9131C44.472 43.9747 44.3935 44.0642 44.3542 44.1704C44.3038 44.3942 44.2813 44.6235 44.2982 44.8529V49.6748C44.2869 49.9097 44.3038 50.1447 44.3542 50.374C44.4047 50.4803 44.4888 50.5642 44.5897 50.6202C44.7355 50.6985 44.8981 50.7376 45.0663 50.7264H45.2962V50.9278H41.6012V50.732H41.8311C42.0049 50.7376 42.1787 50.6985 42.3301 50.6146C42.4254 50.553 42.5039 50.4635 42.5432 50.3572C42.5936 50.1335 42.6161 49.9097 42.5993 49.6804V47.4093H40.0986L40.0873 47.4149ZM36.5774 43.4376V45.9717H36.3868C36.2746 45.3843 35.9718 44.8473 35.5289 44.4501C35.1364 44.1033 34.6262 43.9131 34.1047 43.9187C33.6674 43.9187 33.2413 44.0586 32.888 44.3159C32.5236 44.5732 32.2432 44.9368 32.0806 45.3508C31.8563 45.9325 31.7442 46.5478 31.7498 47.1688C31.7442 47.7729 31.8227 48.377 31.9909 48.9588C32.1087 49.4343 32.3722 49.8594 32.7422 50.1838C33.1235 50.4747 33.5889 50.6202 34.0655 50.5978C34.4916 50.6034 34.9121 50.4971 35.2878 50.2957C35.742 50.0216 36.1344 49.6692 36.4596 49.2553V49.8874C36.112 50.2789 35.6915 50.5922 35.2205 50.8159C34.7439 51.0173 34.2281 51.118 33.7122 51.1068C33.0114 51.118 32.3217 50.9558 31.6993 50.6369C31.1218 50.3293 30.6508 49.8594 30.3425 49.2832C30.0285 48.7071 29.8659 48.0582 29.8659 47.4037C29.8659 46.7045 30.0509 46.022 30.3985 45.4179C31.0714 44.1928 32.361 43.4376 33.7627 43.4376C34.3066 43.4488 34.8392 43.5607 35.3383 43.7733C35.5345 43.8628 35.7363 43.9299 35.9494 43.9691C36.0559 43.9635 36.1513 43.9243 36.2242 43.846C36.3195 43.7341 36.3755 43.5887 36.3868 43.4432H36.5886L36.5774 43.4376ZM28.5146 43.4376L28.5763 45.8822H28.3688C28.2959 45.3228 28.0324 44.8026 27.6287 44.4054C27.2923 44.0586 26.8325 43.8572 26.3503 43.846C26.0419 43.8292 25.7392 43.9355 25.5093 44.1425C25.313 44.3103 25.1953 44.5564 25.1953 44.8193C25.1953 44.9704 25.2345 45.1214 25.3074 45.2501C25.4308 45.4458 25.599 45.6137 25.7896 45.7479C26.1485 45.9829 26.5241 46.1954 26.911 46.38C27.5502 46.6597 28.1221 47.0681 28.5931 47.5771C28.8791 47.9463 29.0304 48.3994 29.0248 48.8637C29.0304 49.4622 28.7781 50.0384 28.3352 50.4468C27.8642 50.8943 27.2306 51.1404 26.5746 51.118C26.3615 51.118 26.1541 51.0956 25.9466 51.0509C25.6887 50.9838 25.442 50.8943 25.2009 50.788C25.0719 50.7264 24.9318 50.6929 24.786 50.6817C24.6794 50.6873 24.5841 50.7209 24.5 50.788C24.3879 50.8719 24.3038 50.9894 24.2533 51.118H24.0627V48.3211H24.2533C24.3542 48.9923 24.6626 49.6133 25.1392 50.0999C25.5093 50.4803 26.0195 50.7041 26.5522 50.7153C26.8942 50.732 27.2306 50.6146 27.4829 50.3852C27.8474 50.0664 27.9315 49.535 27.696 49.1154C27.5951 48.942 27.4605 48.7854 27.2979 48.6623C26.9951 48.4442 26.6755 48.2596 26.3391 48.1029C25.8513 47.868 25.3803 47.5883 24.9486 47.2638C24.6851 47.0513 24.4608 46.7884 24.2982 46.4919C24.1412 46.1954 24.0571 45.8598 24.0627 45.5242C24.0571 44.9592 24.2814 44.4222 24.6851 44.0306C25.1 43.6222 25.6663 43.3985 26.2494 43.4153C26.4737 43.4153 26.6979 43.4432 26.9166 43.4992C27.1241 43.5607 27.3259 43.639 27.5166 43.7397C27.6679 43.8292 27.8362 43.8852 28.01 43.9131C28.0885 43.9243 28.167 43.8963 28.223 43.846C28.3015 43.7229 28.352 43.5775 28.3688 43.4321H28.5258L28.5146 43.4376ZM70.9592 31.7633V34.7504H71.0994C71.4806 34.7784 71.8451 34.6105 72.075 34.3085C72.3049 33.9169 72.4394 33.4694 72.4619 33.0163H72.6581V36.8537H72.4619C72.4338 36.4957 72.3497 36.1489 72.1983 35.8244C72.1086 35.5895 71.9404 35.3937 71.7273 35.265C71.4862 35.1587 71.2227 35.114 70.9592 35.1252V37.1949C70.9424 37.441 70.9592 37.6928 71.0097 37.9333C71.0433 38.0284 71.1106 38.1067 71.1947 38.1571C71.3293 38.2242 71.4862 38.2521 71.6376 38.241H72.0582C72.6301 38.2689 73.1908 38.1011 73.6505 37.7655C74.0879 37.3907 74.3906 36.8817 74.5084 36.3167H74.699L74.3963 38.6661H68.2679V38.4703H68.5034C68.6772 38.4759 68.8454 38.4367 68.9968 38.3584C69.0921 38.2969 69.165 38.2074 69.2042 38.1011C69.2603 37.8774 69.2827 37.648 69.2659 37.4187V32.5912C69.2827 32.3898 69.2827 32.1828 69.2659 31.9814C69.2379 31.864 69.1706 31.7633 69.0753 31.6906C68.9127 31.5787 68.7108 31.5227 68.5146 31.5395H68.2791V31.3325H74.2056V33.503H74.0094C73.9533 33.1002 73.8075 32.7198 73.5832 32.3842C73.3814 32.1381 73.1123 31.9647 72.8095 31.8751C72.4394 31.7912 72.0638 31.7577 71.6881 31.7801H70.9592V31.7633ZM63.0478 36.1712L64.971 31.3381H67.8529V31.5395H67.6231C67.4492 31.5283 67.2754 31.5675 67.124 31.6514C67.0287 31.7129 66.9614 31.8024 66.9166 31.9031C66.8661 32.1269 66.8437 32.3506 66.8605 32.58V37.4131C66.8437 37.648 66.8661 37.8885 66.9166 38.1179C66.9671 38.2242 67.0512 38.3081 67.1521 38.364C67.2979 38.4423 67.4605 38.4815 67.6287 38.4703H67.8586V38.6661H64.1636V38.4703H64.3935C64.5673 38.4759 64.7411 38.4367 64.8925 38.3584C64.9878 38.2969 65.0607 38.2074 65.0999 38.1011C65.1504 37.8774 65.1728 37.648 65.156 37.4187V31.9814L62.4422 38.6941H62.3133L59.5603 32.0542V37.1893C59.5434 37.4131 59.5434 37.6312 59.5603 37.855C59.6051 38.0284 59.7117 38.185 59.8574 38.2913C60.0705 38.4256 60.3172 38.4871 60.5695 38.4647V38.6605H58.1473V38.4703H58.2202C58.3716 38.4759 58.523 38.4479 58.6632 38.392C58.7865 38.3472 58.893 38.2689 58.9715 38.1682C59.05 38.0508 59.1061 37.9165 59.1341 37.7767V32.58C59.1454 32.345 59.1285 32.1157 59.0781 31.8863C59.0276 31.7856 58.9435 31.7017 58.8426 31.6458C58.6968 31.5675 58.5342 31.5339 58.366 31.5395H58.1417V31.3325H61.0349L63.0478 36.1712ZM57.71 38.4703V38.6661H54.0094V38.4703H54.2449C54.4187 38.4759 54.5869 38.4367 54.7383 38.3584C54.8336 38.2969 54.9065 38.2074 54.9457 38.1011C55.0018 37.8774 55.0242 37.648 55.0074 37.4187V32.5912C55.0186 32.3562 55.0018 32.1157 54.9457 31.8863C54.9009 31.7801 54.8168 31.6961 54.7159 31.6402C54.5757 31.5675 54.4131 31.5283 54.2561 31.5395H54.0206V31.3325H57.7212V31.5395H57.4857C57.3119 31.5283 57.1437 31.5675 56.9923 31.6514C56.8914 31.7129 56.8185 31.8024 56.7792 31.9143C56.7288 32.1381 56.7063 32.3674 56.7232 32.5968V37.4131C56.7119 37.648 56.7288 37.8885 56.7848 38.1179C56.8353 38.2242 56.9194 38.3081 57.0203 38.364C57.1661 38.4423 57.3287 38.4759 57.4913 38.4703H57.7268H57.71ZM53.4207 31.3325V33.3184H53.23C53.1627 32.9715 53.0394 32.6359 52.86 32.3283C52.7198 32.1213 52.5236 31.9591 52.2993 31.8528C52.075 31.7745 51.8395 31.7409 51.604 31.7577H51.0826V37.4131C51.0713 37.648 51.0882 37.8885 51.1442 38.1179C51.1947 38.2242 51.2788 38.3081 51.3797 38.364C51.5255 38.4423 51.6881 38.4815 51.8563 38.4703H52.0918V38.6661H48.38V38.4703H48.6043C48.7781 38.4759 48.9463 38.4367 49.0977 38.3584C49.1986 38.2969 49.2715 38.2074 49.3108 38.1011C49.3668 37.8774 49.3837 37.648 49.3668 37.4187V31.7577H48.8734C48.4978 31.7241 48.1277 31.836 47.8361 32.0709C47.5165 32.4122 47.3147 32.8541 47.2754 33.3184H47.0624V31.3325H53.4207ZM46.4288 38.4703V38.6661H42.7282V38.4703H42.9637C43.1375 38.4759 43.3057 38.4367 43.4571 38.3584C43.5524 38.3025 43.6309 38.2074 43.6646 38.1011C43.7206 37.8774 43.7431 37.648 43.7262 37.4187V32.5912C43.7431 32.3562 43.7206 32.1157 43.6646 31.8863C43.6197 31.7801 43.5356 31.6961 43.4347 31.6402C43.2889 31.5619 43.1263 31.5283 42.9637 31.5395H42.7282V31.3325H46.4288V31.5395H46.1933C46.0195 31.5339 45.8513 31.5675 45.6999 31.6514C45.599 31.7129 45.5261 31.808 45.4868 31.9143C45.4364 32.1381 45.4139 32.3674 45.4308 32.5968V37.4131C45.4195 37.648 45.4364 37.8885 45.4924 38.1179C45.5429 38.2242 45.627 38.3081 45.7279 38.364C45.8737 38.4423 46.0363 38.4815 46.1989 38.4703H46.4344H46.4288ZM37.6371 31.7577V34.9686H37.9511C38.3155 34.9853 38.6856 34.935 39.0332 34.8287C39.2743 34.7336 39.4706 34.5546 39.5939 34.3309C39.7397 34.04 39.8126 33.7211 39.8014 33.3967C39.835 32.9492 39.7005 32.5073 39.4201 32.1604C39.0893 31.864 38.6464 31.7185 38.2034 31.7577H37.6427H37.6371ZM37.6371 35.3545V37.4131C37.6203 37.6648 37.6427 37.9165 37.7044 38.1626C37.7605 38.2689 37.8446 38.3528 37.9511 38.4088C38.1642 38.4815 38.394 38.5151 38.6183 38.4983V38.6941H34.9906V38.4703C35.2149 38.4871 35.4448 38.4591 35.6578 38.3752C35.7644 38.3193 35.8485 38.2354 35.9046 38.1291C35.9662 37.883 35.9887 37.6312 35.9718 37.3795V32.6247C35.9887 32.373 35.9662 32.1213 35.9046 31.8751C35.8485 31.7689 35.7644 31.685 35.6578 31.629C35.4448 31.5507 35.2149 31.5227 34.9906 31.5395V31.3325H38.2819C38.9155 31.3102 39.5435 31.3717 40.1602 31.5171C40.5471 31.6346 40.8891 31.8752 41.1302 32.1996C41.3825 32.5352 41.5115 32.938 41.5059 33.3575C41.5227 33.8666 41.3153 34.3532 40.9452 34.7C40.6592 34.9462 40.3116 35.1196 39.9416 35.2035L41.6236 37.6872C41.7582 37.8997 41.9152 38.1011 42.0946 38.2857C42.2348 38.3976 42.4142 38.4647 42.5936 38.4703V38.6661H40.3509L38.0688 35.3098H37.6315L37.6371 35.3545ZM31.3405 36.1768L30.2864 33.654L29.1986 36.1768H31.3405ZM31.5199 36.574H29.0192L28.7221 37.29C28.638 37.4746 28.5875 37.676 28.5763 37.8774C28.5651 38.062 28.6604 38.2354 28.8174 38.3305C29.036 38.4144 29.2715 38.4591 29.507 38.4591V38.6549H27.1521V38.4703C27.3932 38.4367 27.6119 38.3193 27.7745 38.1403C28.0324 37.799 28.2343 37.4243 28.38 37.0215L30.9144 31.1703H31.0153L33.5665 37.1837C33.7066 37.5697 33.9085 37.9333 34.172 38.2521C34.3122 38.3696 34.486 38.4423 34.671 38.4479V38.6437H31.2228V38.4703H31.391C31.5872 38.4815 31.7778 38.4423 31.9517 38.3472C32.0302 38.2913 32.075 38.1962 32.0694 38.1011C32.0694 38.034 32.0582 37.9669 32.0358 37.8997C31.9909 37.7599 31.9404 37.6256 31.8788 37.4914L31.5199 36.574ZM22.0778 36.16L24.001 31.327H26.883V31.5395H26.6475C26.4737 31.5283 26.2999 31.5675 26.1429 31.6514C26.0475 31.7129 25.9803 31.8024 25.9354 31.9031C25.8849 32.1269 25.8625 32.3506 25.8793 32.58V37.4131C25.8681 37.648 25.8849 37.8885 25.9354 38.1179C25.9859 38.2242 26.07 38.3081 26.1709 38.364C26.3167 38.4423 26.4793 38.4759 26.6475 38.4703H26.8774V38.6661H23.1768V38.4703H23.4067C23.5805 38.4759 23.7543 38.4423 23.9113 38.3584C24.0066 38.2969 24.0795 38.2074 24.1188 38.1011C24.1692 37.8774 24.1916 37.648 24.1748 37.4187V31.9814L21.4611 38.6941H21.3377L18.5847 32.0262V37.1893C18.5679 37.4131 18.5679 37.6312 18.5847 37.855C18.6295 38.0284 18.7361 38.185 18.8819 38.2913C19.0949 38.4256 19.3416 38.4871 19.5939 38.4647V38.6605H17.2054V38.4703H17.2783C17.4297 38.4759 17.5754 38.4479 17.7156 38.392C17.839 38.3472 17.9455 38.2689 18.024 38.1682C18.1025 38.0508 18.1586 37.9165 18.1866 37.7767V32.58C18.2034 32.345 18.181 32.1157 18.1305 31.8863C18.0801 31.7856 17.996 31.7017 17.895 31.6458C17.7493 31.5675 17.5867 31.5283 17.4184 31.5395H17.2054V31.3325H20.0986L22.0778 36.16ZM64.3037 23.9151L63.2496 21.3867L62.1619 23.9151H64.3037ZM64.4832 24.3123H61.9825L61.6853 25.0283C61.6012 25.2129 61.5507 25.4142 61.5395 25.6156C61.5283 25.8002 61.618 25.9736 61.7806 26.0687C62.0049 26.1526 62.2404 26.1974 62.4759 26.1974V26.3988H60.121V26.203C60.3621 26.1694 60.5863 26.0519 60.7489 25.8729C61.0069 25.5317 61.2087 25.1569 61.3545 24.7542L63.8888 18.903H63.9898L66.5465 24.9332C66.6867 25.3192 66.8886 25.6828 67.1465 26.0072C67.2866 26.1303 67.4661 26.1974 67.6511 26.203V26.4044H64.2253V26.203H64.3654C64.5617 26.2142 64.7523 26.175 64.9261 26.0855C65.0046 26.0296 65.0495 25.9345 65.0439 25.8338C65.0439 25.7667 65.0327 25.6995 65.0102 25.6324C65.0102 25.5988 64.9542 25.4646 64.8532 25.2241L64.4832 24.3123ZM59.8182 26.203V26.4044H56.1176V26.203H56.3531C56.5269 26.2086 56.7007 26.175 56.8521 26.0911C56.9474 26.0296 57.0203 25.9401 57.0596 25.8338C57.1156 25.61 57.1325 25.3807 57.1156 25.1513V20.3518C57.1325 20.1169 57.11 19.8763 57.0596 19.647C57.0147 19.5407 56.9306 19.4568 56.8297 19.4009C56.6839 19.3225 56.5213 19.289 56.3587 19.2946H56.0952V19.0708H59.8182V19.2722H59.5827C59.4089 19.2666 59.2407 19.3002 59.0893 19.3841C58.994 19.4456 58.9155 19.5351 58.8762 19.6414C58.8258 19.8651 58.8033 20.0945 58.8202 20.3238V25.1457C58.8033 25.3807 58.8258 25.6212 58.8762 25.8506C58.9267 25.9569 59.0108 26.0408 59.1117 26.0967C59.2575 26.175 59.4201 26.2142 59.5827 26.203H59.8182ZM50.8471 19.0708L54.3402 23.6186V20.4637C54.3682 20.156 54.3066 19.8484 54.1608 19.5743C53.9421 19.3449 53.6337 19.233 53.3197 19.2722V19.0708H55.6578V19.2722C55.4504 19.289 55.2485 19.3393 55.0579 19.4288C54.9458 19.5015 54.8616 19.6078 54.8168 19.7365C54.7495 19.977 54.7215 20.2231 54.7327 20.4693V26.5722H54.5252L49.7257 20.4637V25.129C49.6864 25.4422 49.7874 25.7499 50.006 25.9792C50.1855 26.1247 50.4097 26.203 50.6452 26.203H50.8471V26.4044H48.3127V26.203C48.6099 26.2254 48.9015 26.1359 49.1257 25.9457C49.3052 25.7107 49.3837 25.4142 49.3556 25.1178V19.9546L49.2042 19.7589C49.0977 19.6078 48.9631 19.4736 48.8061 19.3729C48.6491 19.3058 48.4809 19.2722 48.3127 19.2722V19.0708C48.3127 19.0708 50.8471 19.0708 50.8471 19.0708ZM48.0436 19.0708V19.2722C47.8417 19.2834 47.6455 19.3617 47.4829 19.4848C47.1521 19.8595 46.8774 20.2791 46.6587 20.7266L45.1448 23.3725V25.1457C45.128 25.3807 45.1504 25.6212 45.2009 25.8506C45.2513 25.9513 45.3298 26.0352 45.4252 26.0911C45.5653 26.1694 45.7223 26.2086 45.8793 26.1974H46.2718V26.3988H42.3021V26.203H42.6721C42.846 26.2142 43.0142 26.175 43.1656 26.0911C43.2609 26.0296 43.3394 25.9401 43.3786 25.8338C43.4347 25.61 43.4571 25.3807 43.4403 25.1513V23.6802L41.7582 20.5364C41.5788 20.1336 41.3433 19.7533 41.0573 19.4176C40.8947 19.3002 40.6985 19.2386 40.4966 19.2498V19.0708H43.8889V19.2722H43.7767C43.6253 19.261 43.4739 19.289 43.345 19.3673C43.2777 19.4064 43.2328 19.4792 43.2272 19.5575C43.3113 19.9043 43.4515 20.2343 43.6421 20.5364L44.9205 22.9641L46.1933 20.7266C46.4176 20.4022 46.5802 20.033 46.6643 19.647C46.6643 19.5463 46.6138 19.4568 46.5297 19.4064C46.3335 19.2946 46.1092 19.2386 45.8793 19.2442V19.0708C45.8793 19.0708 48.0436 19.0708 48.0436 19.0708ZM35.5625 19.4904V25.2073C35.5513 25.3919 35.5625 25.5821 35.6018 25.7667C35.6298 25.8338 35.6803 25.8897 35.742 25.9233C35.8709 25.9848 36.0111 26.0128 36.1513 26.0072C36.6727 26.0352 37.1661 25.8002 37.4801 25.3863C37.9567 24.6143 38.1754 23.7081 38.1081 22.8019C38.1417 22.0356 37.9959 21.2692 37.682 20.5644C37.5137 20.1728 37.211 19.8484 36.8297 19.6526C36.4204 19.5127 35.9887 19.4568 35.5625 19.4904ZM32.86 26.4044V26.203H33.0955C33.2581 26.2142 33.4207 26.175 33.5665 26.1023C33.673 26.0408 33.7571 25.9401 33.8076 25.8282C33.8524 25.6044 33.8692 25.3751 33.858 25.1457V20.3518C33.8748 20.1169 33.8524 19.8763 33.8019 19.647C33.7515 19.5407 33.673 19.4568 33.5721 19.4009C33.4263 19.3225 33.2637 19.289 33.1011 19.2946H32.86V19.0708H36.0279C36.7288 19.0428 37.424 19.1659 38.0744 19.4288C38.6856 19.7029 39.1846 20.1672 39.5042 20.7546C40.0537 21.8174 40.1434 23.0536 39.7509 24.1836C39.6164 24.5808 39.4033 24.9444 39.1285 25.2632C38.8818 25.5429 38.5791 25.7723 38.2483 25.9457C37.8614 26.1359 37.4521 26.2701 37.0259 26.3428C36.6951 26.3932 36.3587 26.4155 36.0223 26.4044H32.86V26.4044ZM31.7834 18.903V21.4706H31.5872C31.4078 20.8441 31.0433 20.2791 30.5387 19.8595C30.107 19.5015 29.5687 19.3002 29.008 19.3002C28.5258 19.2834 28.0492 19.4512 27.6848 19.7645C27.3147 20.1113 27.0512 20.5588 26.939 21.051C26.7933 21.5992 26.7204 22.1642 26.7204 22.7292C26.7092 23.3557 26.7933 23.9766 26.9615 24.5752C27.0792 25.0395 27.3484 25.4534 27.7352 25.7443C28.1109 25.996 28.5538 26.1247 29.008 26.1135C29.1818 26.1135 29.3556 26.0967 29.5295 26.0575C29.7201 26.0352 29.9163 25.996 30.1014 25.9457V24.4185C30.1126 24.2283 30.0901 24.0382 30.0397 23.8592C29.9892 23.7585 29.9051 23.6802 29.8042 23.6298C29.6696 23.5571 29.5182 23.5179 29.3669 23.5235H29.1706V23.3277H32.6077V23.5235C32.417 23.5235 32.2264 23.5627 32.047 23.6354C31.9404 23.6969 31.8563 23.7976 31.8115 23.9151C31.7666 24.0773 31.7554 24.2507 31.7666 24.4185V25.9457C31.3125 26.1526 30.8415 26.3093 30.3537 26.4155C29.8547 26.5218 29.3444 26.5778 28.8342 26.5778C28.2623 26.5946 27.6904 26.4995 27.1521 26.2925C26.7204 26.1079 26.3279 25.8562 25.9803 25.5429C25.6551 25.2464 25.3803 24.894 25.1841 24.5024C24.9374 23.9766 24.8084 23.4061 24.8196 22.8243C24.7972 21.7782 25.2009 20.7658 25.941 20.0274C26.6811 19.2834 27.696 18.8806 28.7445 18.9086C29.322 18.8862 29.8995 19.0037 30.4266 19.2386C30.6228 19.3281 30.8247 19.3953 31.0321 19.44C31.133 19.44 31.2284 19.3953 31.3013 19.3281C31.4078 19.2107 31.4919 19.0652 31.5311 18.9086H31.7834V18.903V18.903ZM53.1571 7.22862V10.2157H53.2973C53.673 10.2437 54.043 10.0815 54.2729 9.77942C54.5028 9.38785 54.6374 8.94034 54.6598 8.48724H54.856V12.3246H54.6598C54.6318 11.9666 54.5421 11.6198 54.3963 11.2954C54.3066 11.0604 54.1383 10.8646 53.9253 10.736C53.6842 10.6353 53.4207 10.5905 53.1571 10.6017V12.6658C53.1403 12.912 53.1571 13.1637 53.2076 13.4042C53.2412 13.4993 53.3085 13.5776 53.3926 13.628C53.5272 13.7007 53.6842 13.7287 53.8356 13.7175H54.2561C54.828 13.7455 55.3887 13.5776 55.8485 13.242C56.2858 12.8672 56.583 12.3582 56.7063 11.7932H56.897L56.5774 14.1203H50.4546V13.9412H50.6901C50.8639 13.9468 51.0321 13.9077 51.1835 13.8294C51.29 13.7734 51.3685 13.6783 51.4078 13.5665C51.4638 13.3427 51.4863 13.1134 51.4694 12.884V8.04532C51.4863 7.84395 51.4863 7.63697 51.4694 7.43559C51.4358 7.31812 51.3741 7.21743 51.2788 7.14471C51.1162 7.03284 50.9144 6.9769 50.7181 6.99368H50.4546V6.80908H56.3811V8.9795H56.1793C56.1232 8.57674 55.9774 8.19636 55.7532 7.86073C55.5513 7.6146 55.2822 7.44119 54.9794 7.35169C54.6149 7.26218 54.2337 7.22862 53.858 7.251H53.1291L53.1571 7.22862ZM44.8532 10.6129V12.884C44.8364 13.119 44.8589 13.3595 44.9093 13.5888C44.9598 13.6951 45.0439 13.779 45.1448 13.835C45.2906 13.9133 45.4532 13.9468 45.6158 13.9412H45.8513V14.1426H42.1507V13.9412H42.3862C42.56 13.9468 42.7282 13.9077 42.8796 13.8294C42.9749 13.7678 43.0534 13.6783 43.0871 13.5665C43.1431 13.3427 43.1599 13.1134 43.1431 12.884V8.04532C43.1599 7.81038 43.1375 7.56985 43.0871 7.3405C43.0422 7.23421 42.9581 7.15031 42.8572 7.09437C42.7114 7.01605 42.5488 6.98249 42.3862 6.98809H42.1507V6.80908H45.8513V7.01046H45.6158C45.442 6.99927 45.2738 7.03843 45.1224 7.12234C45.0271 7.18387 44.9486 7.27337 44.9093 7.37966C44.8589 7.60341 44.8364 7.83276 44.8532 8.06211V10.1374H47.3539V8.04532C47.3708 7.81038 47.3483 7.56985 47.2979 7.3405C47.2474 7.23421 47.1633 7.15031 47.0624 7.09437C46.9166 7.01605 46.754 6.98249 46.5858 6.98809H46.3615V6.80908H50.0565V7.01046H49.821C49.6472 6.99927 49.4734 7.03843 49.322 7.12234C49.2267 7.18387 49.1538 7.27337 49.1089 7.37966C49.0585 7.59782 49.0416 7.82157 49.0529 8.04532V12.8672C49.0416 13.1022 49.0585 13.3427 49.1089 13.5721C49.1594 13.6783 49.2435 13.7622 49.3444 13.8182C49.4902 13.8965 49.6528 13.9357 49.821 13.9245H50.0509V14.1258H46.3615V13.9412H46.5914C46.7652 13.9524 46.939 13.9133 47.0904 13.8294C47.1857 13.7678 47.2586 13.6727 47.3035 13.5665C47.3539 13.3427 47.3764 13.1134 47.3595 12.884V10.6129C47.3595 10.6129 44.8532 10.6129 44.8532 10.6129ZM41.5395 6.80908V8.7949H41.3545C41.2872 8.44808 41.1639 8.11245 40.9845 7.80479C40.8443 7.59782 40.648 7.43559 40.4238 7.32931C40.2051 7.2454 39.9696 7.21184 39.7341 7.22862H39.2014V12.884C39.1846 13.119 39.2071 13.3595 39.2631 13.5888C39.3136 13.6951 39.3977 13.779 39.4986 13.835C39.6444 13.9133 39.807 13.9524 39.9752 13.9412H40.1939V14.1426H36.4989V13.9412H36.7344C36.9082 13.9468 37.0764 13.9077 37.2278 13.8294C37.3287 13.7678 37.4016 13.6727 37.4409 13.5665C37.4913 13.3427 37.5138 13.1134 37.4969 12.884V7.22862H36.9923C36.6166 7.19506 36.2466 7.30694 35.955 7.54188C35.6354 7.8831 35.4336 8.32502 35.3943 8.78931H35.1813V6.80908C35.1813 6.80908 41.5395 6.80908 41.5395 6.80908Z" fill="#FFCB00"/>
<path fill-rule="evenodd" clip-rule="evenodd" d="M68.8734 48.3602L68.6043 50.9334H62.3189V50.732H62.5544C62.7282 50.7376 62.902 50.6985 63.0534 50.6146C63.1543 50.5586 63.2272 50.4635 63.2665 50.3572C63.3169 50.1335 63.3394 49.9097 63.3225 49.6804V44.8585C63.3394 44.6235 63.3169 44.383 63.2665 44.1537C63.216 44.0474 63.1319 43.9635 63.031 43.9075C62.8852 43.8292 62.7226 43.7957 62.56 43.8013H62.3245V43.5999H66.098V43.8013H65.7896C65.6158 43.7901 65.442 43.8292 65.2906 43.9131C65.1953 43.9747 65.1168 44.0642 65.0775 44.1704C65.027 44.3942 65.0046 44.6235 65.0214 44.8529V49.5238C65.0046 49.7643 65.027 50.0048 65.0831 50.2398C65.128 50.3461 65.2177 50.43 65.3298 50.4691C65.5373 50.5139 65.7503 50.5307 65.9634 50.5195H66.5465C66.8717 50.5307 67.1969 50.4579 67.4885 50.3125C67.7576 50.1559 67.9819 49.9321 68.1389 49.6636C68.3688 49.2497 68.5426 48.8133 68.6603 48.3546H68.8734V48.3602V48.3602ZM57.9959 43.846C57.3343 43.8516 56.7512 44.2599 56.5157 44.8753C56.2017 45.6416 56.0615 46.4695 56.1064 47.2974C56.0335 48.2707 56.2522 49.2441 56.74 50.0943C57.0203 50.5027 57.4913 50.7432 57.9847 50.7209C58.3043 50.732 58.6183 50.6369 58.8818 50.4523C59.2295 50.1615 59.4762 49.7699 59.5939 49.3336C59.7845 48.6903 59.8743 48.0246 59.8518 47.3533C59.8855 46.6206 59.7958 45.8822 59.5883 45.1773C59.4706 44.7802 59.2407 44.4278 58.9211 44.1593C58.6576 43.9579 58.3323 43.846 57.9959 43.846ZM57.9343 43.4992C58.9547 43.4153 59.964 43.7901 60.6817 44.5173C61.3881 45.2445 61.7694 46.2234 61.7414 47.2359C61.7526 48.1197 61.4722 48.9868 60.9396 49.6916C60.2611 50.6258 59.1566 51.1628 58.0015 51.118C56.8577 51.174 55.7532 50.6761 55.0467 49.7755C54.486 49.0539 54.1888 48.1589 54.2112 47.2415C54.1832 46.229 54.5701 45.2445 55.2822 44.5229C55.9718 43.8068 56.9418 43.4321 57.9343 43.4992ZM49.6808 43.846C49.0192 43.8516 48.4361 44.2599 48.2006 44.8753C47.8866 45.6416 47.7464 46.4695 47.7913 47.2974C47.7184 48.2707 47.9371 49.2441 48.4249 50.0943C48.7052 50.5027 49.1762 50.7432 49.6696 50.7209C49.9892 50.732 50.3032 50.6369 50.5667 50.4523C50.9144 50.1615 51.1611 49.7699 51.2788 49.3336C51.4694 48.6903 51.5592 48.0246 51.5367 47.3533C51.5704 46.6206 51.4807 45.8822 51.2732 45.1773C51.1555 44.7802 50.9256 44.4278 50.606 44.1593C50.3424 43.9579 50.0172 43.846 49.6808 43.846ZM49.6191 43.4992C50.6396 43.4153 51.6489 43.7901 52.3666 44.5173C53.073 45.2445 53.4543 46.2234 53.4263 47.2359C53.4431 48.1197 53.1627 48.9812 52.6357 49.6916C51.9572 50.6313 50.8471 51.1684 49.6864 51.118C48.5426 51.174 47.438 50.6761 46.7316 49.7755C46.1765 49.0539 45.8849 48.1645 45.9074 47.2583C45.8793 46.2458 46.2662 45.2612 46.9783 44.5396C47.6623 43.8236 48.6267 43.4376 49.6191 43.4992ZM40.0873 47.4149V49.686C40.0705 49.9209 40.0929 50.1559 40.1434 50.3852C40.1939 50.4915 40.278 50.5754 40.3789 50.6313C40.5247 50.7097 40.6873 50.7432 40.8499 50.7376H41.0854V50.939H37.3904V50.732H37.6259C37.7997 50.7376 37.9679 50.6985 38.1193 50.6146C38.2146 50.5586 38.2931 50.4635 38.3268 50.3572C38.3828 50.1335 38.4053 49.9097 38.3884 49.6804V44.8585C38.4053 44.6235 38.3828 44.383 38.3268 44.1537C38.2819 44.0474 38.1978 43.9635 38.0969 43.9075C37.9511 43.8292 37.7885 43.7957 37.6259 43.8013H37.3904V43.5999H41.091V43.8013H40.8611C40.6873 43.7901 40.5135 43.8292 40.3621 43.9131C40.2612 43.9691 40.1883 44.0642 40.149 44.1704C40.0929 44.3942 40.0761 44.6235 40.0929 44.8529V46.9282H42.5936V44.8585C42.6105 44.6235 42.588 44.383 42.5376 44.1537C42.4871 44.0474 42.403 43.9635 42.3021 43.9075C42.1563 43.8292 41.9937 43.7957 41.8255 43.8013H41.6012V43.5999H45.2962V43.8013H45.0663C44.8925 43.7901 44.7187 43.8292 44.5673 43.9131C44.472 43.9747 44.3935 44.0642 44.3542 44.1704C44.3038 44.3942 44.2813 44.6235 44.2982 44.8529V49.6748C44.2869 49.9097 44.3038 50.1447 44.3542 50.374C44.4047 50.4803 44.4888 50.5642 44.5897 50.6202C44.7355 50.6985 44.8981 50.7376 45.0663 50.7264H45.2962V50.9278H41.6012V50.732H41.8311C42.0049 50.7376 42.1787 50.6985 42.3301 50.6146C42.4254 50.553 42.5039 50.4635 42.5432 50.3572C42.5936 50.1335 42.6161 49.9097 42.5993 49.6804V47.4093H40.0986L40.0873 47.4149ZM36.5774 43.4376V45.9717H36.3868C36.2746 45.3843 35.9718 44.8473 35.5289 44.4501C35.1364 44.1033 34.6262 43.9131 34.1047 43.9187C33.6674 43.9187 33.2413 44.0586 32.888 44.3159C32.5236 44.5732 32.2432 44.9368 32.0806 45.3508C31.8563 45.9325 31.7442 46.5478 31.7498 47.1688C31.7442 47.7729 31.8227 48.377 31.9909 48.9588C32.1087 49.4343 32.3722 49.8594 32.7422 50.1838C33.1235 50.4747 33.5889 50.6202 34.0655 50.5978C34.4916 50.6034 34.9121 50.4971 35.2878 50.2957C35.742 50.0216 36.1344 49.6692 36.4596 49.2553V49.8874C36.112 50.2789 35.6915 50.5922 35.2205 50.8159C34.7439 51.0173 34.2281 51.118 33.7122 51.1068C33.0114 51.118 32.3217 50.9558 31.6993 50.6369C31.1218 50.3293 30.6508 49.8594 30.3425 49.2832C30.0285 48.7071 29.8659 48.0582 29.8659 47.4037C29.8659 46.7045 30.0509 46.022 30.3985 45.4179C31.0714 44.1928 32.361 43.4376 33.7627 43.4376C34.3066 43.4488 34.8392 43.5607 35.3383 43.7733C35.5345 43.8628 35.7363 43.9299 35.9494 43.9691C36.0559 43.9635 36.1513 43.9243 36.2242 43.846C36.3195 43.7341 36.3755 43.5887 36.3868 43.4432H36.5886L36.5774 43.4376ZM28.5146 43.4376L28.5763 45.8822H28.3688C28.2959 45.3228 28.0324 44.8026 27.6287 44.4054C27.2923 44.0586 26.8325 43.8572 26.3503 43.846C26.0419 43.8292 25.7392 43.9355 25.5093 44.1425C25.313 44.3103 25.1953 44.5564 25.1953 44.8193C25.1953 44.9704 25.2345 45.1214 25.3074 45.2501C25.4308 45.4458 25.599 45.6137 25.7896 45.7479C26.1485 45.9829 26.5241 46.1954 26.911 46.38C27.5502 46.6597 28.1221 47.0681 28.5931 47.5771C28.8791 47.9463 29.0304 48.3994 29.0248 48.8637C29.0304 49.4622 28.7781 50.0384 28.3352 50.4468C27.8642 50.8943 27.2306 51.1404 26.5746 51.118C26.3615 51.118 26.1541 51.0956 25.9466 51.0509C25.6887 50.9838 25.442 50.8943 25.2009 50.788C25.0719 50.7264 24.9318 50.6929 24.786 50.6817C24.6794 50.6873 24.5841 50.7209 24.5 50.788C24.3879 50.8719 24.3038 50.9894 24.2533 51.118H24.0627V48.3211H24.2533C24.3542 48.9923 24.6626 49.6133 25.1392 50.0999C25.5093 50.4803 26.0195 50.7041 26.5522 50.7153C26.8942 50.732 27.2306 50.6146 27.4829 50.3852C27.8474 50.0664 27.9315 49.535 27.696 49.1154C27.5951 48.942 27.4605 48.7854 27.2979 48.6623C26.9951 48.4442 26.6755 48.2596 26.3391 48.1029C25.8513 47.868 25.3803 47.5883 24.9486 47.2638C24.6851 47.0513 24.4608 46.7884 24.2982 46.4919C24.1412 46.1954 24.0571 45.8598 24.0627 45.5242C24.0571 44.9592 24.2814 44.4222 24.6851 44.0306C25.1 43.6222 25.6663 43.3985 26.2494 43.4153C26.4737 43.4153 26.6979 43.4432 26.9166 43.4992C27.1241 43.5607 27.3259 43.639 27.5166 43.7397C27.6679 43.8292 27.8362 43.8852 28.01 43.9131C28.0885 43.9243 28.167 43.8963 28.223 43.846C28.3015 43.7229 28.352 43.5775 28.3688 43.4321H28.5258L28.5146 43.4376ZM70.9592 31.7633V34.7504H71.0994C71.4806 34.7784 71.8451 34.6105 72.075 34.3085C72.3049 33.9169 72.4394 33.4694 72.4619 33.0163H72.6581V36.8537H72.4619C72.4338 36.4957 72.3497 36.1489 72.1983 35.8244C72.1086 35.5895 71.9404 35.3937 71.7273 35.265C71.4862 35.1587 71.2227 35.114 70.9592 35.1252V37.1949C70.9424 37.441 70.9592 37.6928 71.0097 37.9333C71.0433 38.0284 71.1106 38.1067 71.1947 38.1571C71.3293 38.2242 71.4862 38.2521 71.6376 38.241H72.0582C72.6301 38.2689 73.1908 38.1011 73.6505 37.7655C74.0879 37.3907 74.3906 36.8817 74.5084 36.3167H74.699L74.3963 38.6661H68.2679V38.4703H68.5034C68.6772 38.4759 68.8454 38.4367 68.9968 38.3584C69.0921 38.2969 69.165 38.2074 69.2042 38.1011C69.2603 37.8774 69.2827 37.648 69.2659 37.4187V32.5912C69.2827 32.3898 69.2827 32.1828 69.2659 31.9814C69.2379 31.864 69.1706 31.7633 69.0753 31.6906C68.9127 31.5787 68.7108 31.5227 68.5146 31.5395H68.2791V31.3325H74.2056V33.503H74.0094C73.9533 33.1002 73.8075 32.7198 73.5832 32.3842C73.3814 32.1381 73.1123 31.9647 72.8095 31.8751C72.4394 31.7912 72.0638 31.7577 71.6881 31.7801H70.9592V31.7633ZM63.0478 36.1712L64.971 31.3381H67.8529V31.5395H67.6231C67.4492 31.5283 67.2754 31.5675 67.124 31.6514C67.0287 31.7129 66.9614 31.8024 66.9166 31.9031C66.8661 32.1269 66.8437 32.3506 66.8605 32.58V37.4131C66.8437 37.648 66.8661 37.8885 66.9166 38.1179C66.9671 38.2242 67.0512 38.3081 67.1521 38.364C67.2979 38.4423 67.4605 38.4815 67.6287 38.4703H67.8586V38.6661H64.1636V38.4703H64.3935C64.5673 38.4759 64.7411 38.4367 64.8925 38.3584C64.9878 38.2969 65.0607 38.2074 65.0999 38.1011C65.1504 37.8774 65.1728 37.648 65.156 37.4187V31.9814L62.4422 38.6941H62.3133L59.5603 32.0542V37.1893C59.5434 37.4131 59.5434 37.6312 59.5603 37.855C59.6051 38.0284 59.7117 38.185 59.8574 38.2913C60.0705 38.4256 60.3172 38.4871 60.5695 38.4647V38.6605H58.1473V38.4703H58.2202C58.3716 38.4759 58.523 38.4479 58.6632 38.392C58.7865 38.3472 58.893 38.2689 58.9715 38.1682C59.05 38.0508 59.1061 37.9165 59.1341 37.7767V32.58C59.1454 32.345 59.1285 32.1157 59.0781 31.8863C59.0276 31.7856 58.9435 31.7017 58.8426 31.6458C58.6968 31.5675 58.5342 31.5339 58.366 31.5395H58.1417V31.3325H61.0349L63.0478 36.1712ZM57.71 38.4703V38.6661H54.0094V38.4703H54.2449C54.4187 38.4759 54.5869 38.4367 54.7383 38.3584C54.8336 38.2969 54.9065 38.2074 54.9457 38.1011C55.0018 37.8774 55.0242 37.648 55.0074 37.4187V32.5912C55.0186 32.3562 55.0018 32.1157 54.9457 31.8863C54.9009 31.7801 54.8168 31.6961 54.7159 31.6402C54.5757 31.5675 54.4131 31.5283 54.2561 31.5395H54.0206V31.3325H57.7212V31.5395H57.4857C57.3119 31.5283 57.1437 31.5675 56.9923 31.6514C56.8914 31.7129 56.8185 31.8024 56.7792 31.9143C56.7288 32.1381 56.7063 32.3674 56.7232 32.5968V37.4131C56.7119 37.648 56.7288 37.8885 56.7848 38.1179C56.8353 38.2242 56.9194 38.3081 57.0203 38.364C57.1661 38.4423 57.3287 38.4759 57.4913 38.4703H57.7268H57.71ZM53.4207 31.3325V33.3184H53.23C53.1627 32.9715 53.0394 32.6359 52.86 32.3283C52.7198 32.1213 52.5236 31.9591 52.2993 31.8528C52.075 31.7745 51.8395 31.7409 51.604 31.7577H51.0826V37.4131C51.0713 37.648 51.0882 37.8885 51.1442 38.1179C51.1947 38.2242 51.2788 38.3081 51.3797 38.364C51.5255 38.4423 51.6881 38.4815 51.8563 38.4703H52.0918V38.6661H48.38V38.4703H48.6043C48.7781 38.4759 48.9463 38.4367 49.0977 38.3584C49.1986 38.2969 49.2715 38.2074 49.3108 38.1011C49.3668 37.8774 49.3837 37.648 49.3668 37.4187V31.7577H48.8734C48.4978 31.7241 48.1277 31.836 47.8361 32.0709C47.5165 32.4122 47.3147 32.8541 47.2754 33.3184H47.0624V31.3325H53.4207ZM46.4288 38.4703V38.6661H42.7282V38.4703H42.9637C43.1375 38.4759 43.3057 38.4367 43.4571 38.3584C43.5524 38.3025 43.6309 38.2074 43.6646 38.1011C43.7206 37.8774 43.7431 37.648 43.7262 37.4187V32.5912C43.7431 32.3562 43.7206 32.1157 43.6646 31.8863C43.6197 31.7801 43.5356 31.6961 43.4347 31.6402C43.2889 31.5619 43.1263 31.5283 42.9637 31.5395H42.7282V31.3325H46.4288V31.5395H46.1933C46.0195 31.5339 45.8513 31.5675 45.6999 31.6514C45.599 31.7129 45.5261 31.808 45.4868 31.9143C45.4364 32.1381 45.4139 32.3674 45.4308 32.5968V37.4131C45.4195 37.648 45.4364 37.8885 45.4924 38.1179C45.5429 38.2242 45.627 38.3081 45.7279 38.364C45.8737 38.4423 46.0363 38.4815 46.1989 38.4703H46.4344H46.4288ZM37.6371 31.7577V34.9686H37.9511C38.3155 34.9853 38.6856 34.935 39.0332 34.8287C39.2743 34.7336 39.4706 34.5546 39.5939 34.3309C39.7397 34.04 39.8126 33.7211 39.8014 33.3967C39.835 32.9492 39.7005 32.5073 39.4201 32.1604C39.0893 31.864 38.6464 31.7185 38.2034 31.7577H37.6427H37.6371ZM37.6371 35.3545V37.4131C37.6203 37.6648 37.6427 37.9165 37.7044 38.1626C37.7605 38.2689 37.8446 38.3528 37.9511 38.4088C38.1642 38.4815 38.394 38.5151 38.6183 38.4983V38.6941H34.9906V38.4703C35.2149 38.4871 35.4448 38.4591 35.6578 38.3752C35.7644 38.3193 35.8485 38.2354 35.9046 38.1291C35.9662 37.883 35.9887 37.6312 35.9718 37.3795V32.6247C35.9887 32.373 35.9662 32.1213 35.9046 31.8751C35.8485 31.7689 35.7644 31.685 35.6578 31.629C35.4448 31.5507 35.2149 31.5227 34.9906 31.5395V31.3325H38.2819C38.9155 31.3102 39.5435 31.3717 40.1602 31.5171C40.5471 31.6346 40.8891 31.8752 41.1302 32.1996C41.3825 32.5352 41.5115 32.938 41.5059 33.3575C41.5227 33.8666 41.3153 34.3532 40.9452 34.7C40.6592 34.9462 40.3116 35.1196 39.9416 35.2035L41.6236 37.6872C41.7582 37.8997 41.9152 38.1011 42.0946 38.2857C42.2348 38.3976 42.4142 38.4647 42.5936 38.4703V38.6661H40.3509L38.0688 35.3098H37.6315L37.6371 35.3545ZM31.3405 36.1768L30.2864 33.654L29.1986 36.1768H31.3405ZM31.5199 36.574H29.0192L28.7221 37.29C28.638 37.4746 28.5875 37.676 28.5763 37.8774C28.5651 38.062 28.6604 38.2354 28.8174 38.3305C29.036 38.4144 29.2715 38.4591 29.507 38.4591V38.6549H27.1521V38.4703C27.3932 38.4367 27.6119 38.3193 27.7745 38.1403C28.0324 37.799 28.2343 37.4243 28.38 37.0215L30.9144 31.1703H31.0153L33.5665 37.1837C33.7066 37.5697 33.9085 37.9333 34.172 38.2521C34.3122 38.3696 34.486 38.4423 34.671 38.4479V38.6437H31.2228V38.4703H31.391C31.5872 38.4815 31.7778 38.4423 31.9517 38.3472C32.0302 38.2913 32.075 38.1962 32.0694 38.1011C32.0694 38.034 32.0582 37.9669 32.0358 37.8997C31.9909 37.7599 31.9404 37.6256 31.8788 37.4914L31.5199 36.574ZM22.0778 36.16L24.001 31.327H26.883V31.5395H26.6475C26.4737 31.5283 26.2999 31.5675 26.1429 31.6514C26.0475 31.7129 25.9803 31.8024 25.9354 31.9031C25.8849 32.1269 25.8625 32.3506 25.8793 32.58V37.4131C25.8681 37.648 25.8849 37.8885 25.9354 38.1179C25.9859 38.2242 26.07 38.3081 26.1709 38.364C26.3167 38.4423 26.4793 38.4759 26.6475 38.4703H26.8774V38.6661H23.1768V38.4703H23.4067C23.5805 38.4759 23.7543 38.4423 23.9113 38.3584C24.0066 38.2969 24.0795 38.2074 24.1188 38.1011C24.1692 37.8774 24.1916 37.648 24.1748 37.4187V31.9814L21.4611 38.6941H21.3377L18.5847 32.0262V37.1893C18.5679 37.4131 18.5679 37.6312 18.5847 37.855C18.6295 38.0284 18.7361 38.185 18.8819 38.2913C19.0949 38.4256 19.3416 38.4871 19.5939 38.4647V38.6605H17.2054V38.4703H17.2783C17.4297 38.4759 17.5754 38.4479 17.7156 38.392C17.839 38.3472 17.9455 38.2689 18.024 38.1682C18.1025 38.0508 18.1586 37.9165 18.1866 37.7767V32.58C18.2034 32.345 18.181 32.1157 18.1305 31.8863C18.0801 31.7856 17.996 31.7017 17.895 31.6458C17.7493 31.5675 17.5867 31.5283 17.4184 31.5395H17.2054V31.3325H20.0986L22.0778 36.16ZM64.3037 23.9151L63.2496 21.3867L62.1619 23.9151H64.3037ZM64.4832 24.3123H61.9825L61.6853 25.0283C61.6012 25.2129 61.5507 25.4142 61.5395 25.6156C61.5283 25.8002 61.618 25.9736 61.7806 26.0687C62.0049 26.1526 62.2404 26.1974 62.4759 26.1974V26.3988H60.121V26.203C60.3621 26.1694 60.5863 26.0519 60.7489 25.8729C61.0069 25.5317 61.2087 25.1569 61.3545 24.7542L63.8888 18.903H63.9898L66.5465 24.9332C66.6867 25.3192 66.8886 25.6828 67.1465 26.0072C67.2866 26.1303 67.4661 26.1974 67.6511 26.203V26.4044H64.2253V26.203H64.3654C64.5617 26.2142 64.7523 26.175 64.9261 26.0855C65.0046 26.0296 65.0495 25.9345 65.0439 25.8338C65.0439 25.7667 65.0327 25.6995 65.0102 25.6324C65.0102 25.5988 64.9542 25.4646 64.8532 25.2241L64.4832 24.3123ZM59.8182 26.203V26.4044H56.1176V26.203H56.3531C56.5269 26.2086 56.7007 26.175 56.8521 26.0911C56.9474 26.0296 57.0203 25.9401 57.0596 25.8338C57.1156 25.61 57.1325 25.3807 57.1156 25.1513V20.3518C57.1325 20.1169 57.11 19.8763 57.0596 19.647C57.0147 19.5407 56.9306 19.4568 56.8297 19.4009C56.6839 19.3225 56.5213 19.289 56.3587 19.2946H56.0952V19.0708H59.8182V19.2722H59.5827C59.4089 19.2666 59.2407 19.3002 59.0893 19.3841C58.994 19.4456 58.9155 19.5351 58.8762 19.6414C58.8258 19.8651 58.8033 20.0945 58.8202 20.3238V25.1457C58.8033 25.3807 58.8258 25.6212 58.8762 25.8506C58.9267 25.9569 59.0108 26.0408 59.1117 26.0967C59.2575 26.175 59.4201 26.2142 59.5827 26.203H59.8182ZM50.8471 19.0708L54.3402 23.6186V20.4637C54.3682 20.156 54.3066 19.8484 54.1608 19.5743C53.9421 19.3449 53.6337 19.233 53.3197 19.2722V19.0708H55.6578V19.2722C55.4504 19.289 55.2485 19.3393 55.0579 19.4288C54.9458 19.5015 54.8616 19.6078 54.8168 19.7365C54.7495 19.977 54.7215 20.2231 54.7327 20.4693V26.5722H54.5252L49.7257 20.4637V25.129C49.6864 25.4422 49.7874 25.7499 50.006 25.9792C50.1855 26.1247 50.4097 26.203 50.6452 26.203H50.8471V26.4044H48.3127V26.203C48.6099 26.2254 48.9015 26.1359 49.1257 25.9457C49.3052 25.7107 49.3837 25.4142 49.3556 25.1178V19.9546L49.2042 19.7589C49.0977 19.6078 48.9631 19.4736 48.8061 19.3729C48.6491 19.3058 48.4809 19.2722 48.3127 19.2722V19.0708C48.3127 19.0708 50.8471 19.0708 50.8471 19.0708ZM48.0436 19.0708V19.2722C47.8417 19.2834 47.6455 19.3617 47.4829 19.4848C47.1521 19.8595 46.8774 20.2791 46.6587 20.7266L45.1448 23.3725V25.1457C45.128 25.3807 45.1504 25.6212 45.2009 25.8506C45.2513 25.9513 45.3298 26.0352 45.4252 26.0911C45.5653 26.1694 45.7223 26.2086 45.8793 26.1974H46.2718V26.3988H42.3021V26.203H42.6721C42.846 26.2142 43.0142 26.175 43.1656 26.0911C43.2609 26.0296 43.3394 25.9401 43.3786 25.8338C43.4347 25.61 43.4571 25.3807 43.4403 25.1513V23.6802L41.7582 20.5364C41.5788 20.1336 41.3433 19.7533 41.0573 19.4176C40.8947 19.3002 40.6985 19.2386 40.4966 19.2498V19.0708H43.8889V19.2722H43.7767C43.6253 19.261 43.4739 19.289 43.345 19.3673C43.2777 19.4064 43.2328 19.4792 43.2272 19.5575C43.3113 19.9043 43.4515 20.2343 43.6421 20.5364L44.9205 22.9641L46.1933 20.7266C46.4176 20.4022 46.5802 20.033 46.6643 19.647C46.6643 19.5463 46.6138 19.4568 46.5297 19.4064C46.3335 19.2946 46.1092 19.2386 45.8793 19.2442V19.0708C45.8793 19.0708 48.0436 19.0708 48.0436 19.0708ZM35.5625 19.4904V25.2073C35.5513 25.3919 35.5625 25.5821 35.6018 25.7667C35.6298 25.8338 35.6803 25.8897 35.742 25.9233C35.8709 25.9848 36.0111 26.0128 36.1513 26.0072C36.6727 26.0352 37.1661 25.8002 37.4801 25.3863C37.9567 24.6143 38.1754 23.7081 38.1081 22.8019C38.1417 22.0356 37.9959 21.2692 37.682 20.5644C37.5137 20.1728 37.211 19.8484 36.8297 19.6526C36.4204 19.5127 35.9887 19.4568 35.5625 19.4904ZM32.86 26.4044V26.203H33.0955C33.2581 26.2142 33.4207 26.175 33.5665 26.1023C33.673 26.0408 33.7571 25.9401 33.8076 25.8282C33.8524 25.6044 33.8692 25.3751 33.858 25.1457V20.3518C33.8748 20.1169 33.8524 19.8763 33.8019 19.647C33.7515 19.5407 33.673 19.4568 33.5721 19.4009C33.4263 19.3225 33.2637 19.289 33.1011 19.2946H32.86V19.0708H36.0279C36.7288 19.0428 37.424 19.1659 38.0744 19.4288C38.6856 19.7029 39.1846 20.1672 39.5042 20.7546C40.0537 21.8174 40.1434 23.0536 39.7509 24.1836C39.6164 24.5808 39.4033 24.9444 39.1285 25.2632C38.8818 25.5429 38.5791 25.7723 38.2483 25.9457C37.8614 26.1359 37.4521 26.2701 37.0259 26.3428C36.6951 26.3932 36.3587 26.4155 36.0223 26.4044H32.86V26.4044ZM31.7834 18.903V21.4706H31.5872C31.4078 20.8441 31.0433 20.2791 30.5387 19.8595C30.107 19.5015 29.5687 19.3002 29.008 19.3002C28.5258 19.2834 28.0492 19.4512 27.6848 19.7645C27.3147 20.1113 27.0512 20.5588 26.939 21.051C26.7933 21.5992 26.7204 22.1642 26.7204 22.7292C26.7092 23.3557 26.7933 23.9766 26.9615 24.5752C27.0792 25.0395 27.3484 25.4534 27.7352 25.7443C28.1109 25.996 28.5538 26.1247 29.008 26.1135C29.1818 26.1135 29.3556 26.0967 29.5295 26.0575C29.7201 26.0352 29.9163 25.996 30.1014 25.9457V24.4185C30.1126 24.2283 30.0901 24.0382 30.0397 23.8592C29.9892 23.7585 29.9051 23.6802 29.8042 23.6298C29.6696 23.5571 29.5182 23.5179 29.3669 23.5235H29.1706V23.3277H32.6077V23.5235C32.417 23.5235 32.2264 23.5627 32.047 23.6354C31.9404 23.6969 31.8563 23.7976 31.8115 23.9151C31.7666 24.0773 31.7554 24.2507 31.7666 24.4185V25.9457C31.3125 26.1526 30.8415 26.3093 30.3537 26.4155C29.8547 26.5218 29.3444 26.5778 28.8342 26.5778C28.2623 26.5946 27.6904 26.4995 27.1521 26.2925C26.7204 26.1079 26.3279 25.8562 25.9803 25.5429C25.6551 25.2464 25.3803 24.894 25.1841 24.5024C24.9374 23.9766 24.8084 23.4061 24.8196 22.8243C24.7972 21.7782 25.2009 20.7658 25.941 20.0274C26.6811 19.2834 27.696 18.8806 28.7445 18.9086C29.322 18.8862 29.8995 19.0037 30.4266 19.2386C30.6228 19.3281 30.8247 19.3953 31.0321 19.44C31.133 19.44 31.2284 19.3953 31.3013 19.3281C31.4078 19.2107 31.4919 19.0652 31.5311 18.9086H31.7834V18.903V18.903ZM53.1571 7.22862V10.2157H53.2973C53.673 10.2437 54.043 10.0815 54.2729 9.77942C54.5028 9.38785 54.6374 8.94034 54.6598 8.48724H54.856V12.3246H54.6598C54.6318 11.9666 54.5421 11.6198 54.3963 11.2954C54.3066 11.0604 54.1383 10.8646 53.9253 10.736C53.6842 10.6353 53.4207 10.5905 53.1571 10.6017V12.6658C53.1403 12.912 53.1571 13.1637 53.2076 13.4042C53.2412 13.4993 53.3085 13.5776 53.3926 13.628C53.5272 13.7007 53.6842 13.7287 53.8356 13.7175H54.2561C54.828 13.7455 55.3887 13.5776 55.8485 13.242C56.2858 12.8672 56.583 12.3582 56.7063 11.7932H56.897L56.5774 14.1203H50.4546V13.9412H50.6901C50.8639 13.9468 51.0321 13.9077 51.1835 13.8294C51.29 13.7734 51.3685 13.6783 51.4078 13.5665C51.4638 13.3427 51.4863 13.1134 51.4694 12.884V8.04532C51.4863 7.84395 51.4863 7.63697 51.4694 7.43559C51.4358 7.31812 51.3741 7.21743 51.2788 7.14471C51.1162 7.03284 50.9144 6.9769 50.7181 6.99368H50.4546V6.80908H56.3811V8.9795H56.1793C56.1232 8.57674 55.9774 8.19636 55.7532 7.86073C55.5513 7.6146 55.2822 7.44119 54.9794 7.35169C54.6149 7.26218 54.2337 7.22862 53.858 7.251H53.1291L53.1571 7.22862ZM44.8532 10.6129V12.884C44.8364 13.119 44.8589 13.3595 44.9093 13.5888C44.9598 13.6951 45.0439 13.779 45.1448 13.835C45.2906 13.9133 45.4532 13.9468 45.6158 13.9412H45.8513V14.1426H42.1507V13.9412H42.3862C42.56 13.9468 42.7282 13.9077 42.8796 13.8294C42.9749 13.7678 43.0534 13.6783 43.0871 13.5665C43.1431 13.3427 43.1599 13.1134 43.1431 12.884V8.04532C43.1599 7.81038 43.1375 7.56985 43.0871 7.3405C43.0422 7.23421 42.9581 7.15031 42.8572 7.09437C42.7114 7.01605 42.5488 6.98249 42.3862 6.98809H42.1507V6.80908H45.8513V7.01046H45.6158C45.442 6.99927 45.2738 7.03843 45.1224 7.12234C45.0271 7.18387 44.9486 7.27337 44.9093 7.37966C44.8589 7.60341 44.8364 7.83276 44.8532 8.06211V10.1374H47.3539V8.04532C47.3708 7.81038 47.3483 7.56985 47.2979 7.3405C47.2474 7.23421 47.1633 7.15031 47.0624 7.09437C46.9166 7.01605 46.754 6.98249 46.5858 6.98809H46.3615V6.80908H50.0565V7.01046H49.821C49.6472 6.99927 49.4734 7.03843 49.322 7.12234C49.2267 7.18387 49.1538 7.27337 49.1089 7.37966C49.0585 7.59782 49.0416 7.82157 49.0529 8.04532V12.8672C49.0416 13.1022 49.0585 13.3427 49.1089 13.5721C49.1594 13.6783 49.2435 13.7622 49.3444 13.8182C49.4902 13.8965 49.6528 13.9357 49.821 13.9245H50.0509V14.1258H46.3615V13.9412H46.5914C46.7652 13.9524 46.939 13.9133 47.0904 13.8294C47.1857 13.7678 47.2586 13.6727 47.3035 13.5665C47.3539 13.3427 47.3764 13.1134 47.3595 12.884V10.6129C47.3595 10.6129 44.8532 10.6129 44.8532 10.6129ZM41.5395 6.80908V8.7949H41.3545C41.2872 8.44808 41.1639 8.11245 40.9845 7.80479C40.8443 7.59782 40.648 7.43559 40.4238 7.32931C40.2051 7.2454 39.9696 7.21184 39.7341 7.22862H39.2014V12.884C39.1846 13.119 39.2071 13.3595 39.2631 13.5888C39.3136 13.6951 39.3977 13.779 39.4986 13.835C39.6444 13.9133 39.807 13.9524 39.9752 13.9412H40.1939V14.1426H36.4989V13.9412H36.7344C36.9082 13.9468 37.0764 13.9077 37.2278 13.8294C37.3287 13.7678 37.4016 13.6727 37.4409 13.5665C37.4913 13.3427 37.5138 13.1134 37.4969 12.884V7.22862H36.9923C36.6166 7.19506 36.2466 7.30694 35.955 7.54188C35.6354 7.8831 35.4336 8.32502 35.3943 8.78931H35.1813V6.80908C35.1813 6.80908 41.5395 6.80908 41.5395 6.80908Z" fill="#FFA526"/>
<path fill-rule="evenodd" clip-rule="evenodd" d="M88.2735 83.5022V76.9126H65.4027C63.5805 76.9126 62.1002 75.4358 62.1002 73.6178C62.1002 71.7998 63.5805 70.3231 65.4027 70.3231H88.2735V63.7335H65.4027C59.9303 63.7335 55.4952 68.1582 55.4952 73.6178C55.4952 79.0774 59.9303 83.5022 65.4027 83.5022H88.2735Z" fill="#005E94"/>
<path fill-rule="evenodd" clip-rule="evenodd" d="M88.2735 83.5022V76.9126H65.4027C63.5805 76.9126 62.1002 75.4358 62.1002 73.6178C62.1002 71.7998 63.5805 70.3231 65.4027 70.3231H88.2735V63.7335H65.4027C59.9303 63.7335 55.4952 68.1582 55.4952 73.6178C55.4952 79.0774 59.9303 83.5022 65.4027 83.5022H88.2735Z" fill="#0C2048"/>
<path fill-rule="evenodd" clip-rule="evenodd" d="M0.485474 63.7335V70.3231H23.3562C25.1785 70.3231 26.6587 71.7998 26.6587 73.6178C26.6587 75.4358 25.1785 76.9126 23.3562 76.9126H0.485474V83.5022H23.3562C28.8286 83.5022 33.2637 79.0774 33.2637 73.6178C33.2637 68.1582 28.8286 63.7335 23.3562 63.7335H0.485474V63.7335Z" fill="#005E94"/>
<path fill-rule="evenodd" clip-rule="evenodd" d="M0.485474 63.7335V70.3231H23.3562C25.1785 70.3231 26.6587 71.7998 26.6587 73.6178C26.6587 75.4358 25.1785 76.9126 23.3562 76.9126H0.485474V83.5022H23.3562C28.8286 83.5022 33.2637 79.0774 33.2637 73.6178C33.2637 68.1582 28.8286 63.7335 23.3562 63.7335H0.485474V63.7335Z" fill="#0C2048"/>
<path fill-rule="evenodd" clip-rule="evenodd" d="M65.4027 63.7335H23.3562C17.8838 63.7335 13.4487 68.1582 13.4487 73.6178C13.4487 79.0774 17.8838 83.5022 23.3562 83.5022H65.4027C70.8751 83.5022 75.3102 79.0774 75.3102 73.6178C75.3102 68.1582 70.8751 63.7335 65.4027 63.7335ZM65.4027 76.9126H23.3562C21.534 76.9126 20.0537 75.4358 20.0537 73.6178C20.0537 71.7998 21.534 70.3231 23.3562 70.3231H65.4027C67.225 70.3231 68.7052 71.7998 68.7052 73.6178C68.7052 75.4358 67.225 76.9126 65.4027 76.9126Z" fill="#FFCB00"/>
<path fill-rule="evenodd" clip-rule="evenodd" d="M65.4027 63.7335H23.3562C17.8838 63.7335 13.4487 68.1582 13.4487 73.6178C13.4487 79.0774 17.8838 83.5022 23.3562 83.5022H65.4027C70.8751 83.5022 75.3102 79.0774 75.3102 73.6178C75.3102 68.1582 70.8751 63.7335 65.4027 63.7335ZM65.4027 76.9126H23.3562C21.534 76.9126 20.0537 75.4358 20.0537 73.6178C20.0537 71.7998 21.534 70.3231 23.3562 70.3231H65.4027C67.225 70.3231 68.7052 71.7998 68.7052 73.6178C68.7052 75.4358 67.225 76.9126 65.4027 76.9126Z" fill="#FFA526"/>
<path fill-rule="evenodd" clip-rule="evenodd" d="M0.485474 70.3231H23.3562C25.1785 70.3231 26.6587 71.7998 26.6587 73.6178C26.6587 75.4358 25.1785 76.9126 23.3562 76.9126H0.485474V83.5022H23.3562C28.8286 83.5022 33.2637 79.0774 33.2637 73.6178C33.2637 72.4599 33.0562 71.3523 32.6862 70.3231H0.485474V70.3231Z" fill="#005E94"/>
<path fill-rule="evenodd" clip-rule="evenodd" d="M0.485474 70.3231H23.3562C25.1785 70.3231 26.6587 71.7998 26.6587 73.6178C26.6587 75.4358 25.1785 76.9126 23.3562 76.9126H0.485474V83.5022H23.3562C28.8286 83.5022 33.2637 79.0774 33.2637 73.6178C33.2637 72.4599 33.0562 71.3523 32.6862 70.3231H0.485474V70.3231Z" fill="#0C2048"/>
<path fill-rule="evenodd" clip-rule="evenodd" d="M88.2735 76.9126H65.4027C63.5805 76.9126 62.1002 75.4358 62.1002 73.6178C62.1002 71.7998 63.5805 70.3231 65.4027 70.3231H88.2735V63.7335H65.4027C59.9303 63.7335 55.4952 68.1582 55.4952 73.6178C55.4952 74.7758 55.7027 75.8833 56.0728 76.9126H88.2735Z" fill="#005E94"/>
<path fill-rule="evenodd" clip-rule="evenodd" d="M88.2735 76.9126H65.4027C63.5805 76.9126 62.1002 75.4358 62.1002 73.6178C62.1002 71.7998 63.5805 70.3231 65.4027 70.3231H88.2735V63.7335H65.4027C59.9303 63.7335 55.4952 68.1582 55.4952 73.6178C55.4952 74.7758 55.7027 75.8833 56.0728 76.9126H88.2735Z" fill="#0C2048"/>
</svg>
